<svg width="172" height="180" viewBox="0 0 172 180" fill="none" xmlns="http://www.w3.org/2000/svg">
<g clip-path="url(#clip0)">
<path d="M85.6311 171.262C132.924 171.262 171.262 132.924 171.262 85.6311C171.262 38.3383 132.924 0 85.6311 0C38.3383 0 0 38.3383 0 85.6311C0 132.924 38.3383 171.262 85.6311 171.262Z" fill="#FDB813"/>
<path d="M74.2718 83.5918L45.6116 105.436L37.398 165.029L66.7572 166.951L68.6796 155.941L75.3203 149.825L83.0097 136.893L69.7281 110.504L74.2718 83.5918Z" fill="#FFF8E6"/>
<path d="M65.3592 85.8652L44.7378 111.205L40.1942 143.71C42.466 143.011 44.7378 143.535 47.1844 143.535C51.9029 143.71 56.6213 144.059 61.3398 144.933C66.5825 145.982 71.6505 146.681 76.8932 147.38L83.0097 136.894L60.6408 111.555L65.3592 85.8652Z" fill="#FFF8E6"/>
<path d="M74.6213 71.3594L45.6116 102.117L43.3398 124.486L69.7281 110.505L74.4466 82.8934L74.6213 82.7186V71.3594Z" fill="#FFF8E6"/>
<path d="M116.913 114.991C116.913 117.962 114.466 120.583 111.32 120.583H75.4951C72.5243 120.583 69.9029 118.137 69.9029 114.991V40.3696C69.9029 37.3987 72.3495 34.7773 75.4951 34.7773H111.495C114.466 34.7773 117.087 37.2239 117.087 40.3696V114.991H116.913Z" fill="#272830"/>
<path d="M113.767 106.778C113.767 108.002 112.718 109.05 111.495 109.05H75.3204C74.0971 109.05 73.0485 108.002 73.0485 106.778V44.5648C73.0485 43.3415 74.0971 42.293 75.3204 42.293H111.495C112.718 42.293 113.767 43.3415 113.767 44.5648V106.778Z" fill="#55D6D2"/>
<path d="M109.455 70.2872H96.7178L92.7273 58L88.7368 70.2872H76L86.3043 77.7771L82.3346 90L92.7273 82.4458L103.12 90L99.1503 77.7771L109.455 70.2872Z" fill="#FF7D00"/>
<path d="M99.2621 37.748H87.7281V38.7966H99.2621V37.748Z" fill="#FFF8E6"/>
<path d="M74.6213 163.982L29.7087 158.215L23.2427 196.487L70.9514 204.001L74.6213 163.982Z" fill="#272830"/>
<path d="M63.9611 150.175L75.1456 149.825L82.8349 136.893L85.4563 119.942L93.1456 99.1456C93.1456 99.1456 94.8932 94.0777 91.398 92.1553C88.2524 90.4078 85.1068 93.9029 85.1068 93.9029L76.3689 107.534L62.2136 133.223C62.3883 133.223 60.466 149.825 63.9611 150.175Z" fill="#FFF8E6"/>
<circle cx="94" cy="115" r="4" fill="#FFF8E6"/>
</g>
<defs>
<clipPath id="clip0">
<rect width="171.262" height="180" fill="white"/>
</clipPath>
</defs>
</svg>
