<svg width="16" height="9" viewBox="0 0 16 9" fill="none" xmlns="http://www.w3.org/2000/svg">
<path d="M16.0001 5.64231C15.8696 4.30868 14.6559 4.09346 14.2572 4.0229C13.608 3.91 12.9836 3.75124 12.3944 3.55366C12.4826 3.3949 12.4332 3.19027 12.2709 3.08795C12.1156 2.98916 11.9075 3.03856 11.7981 3.18674L11.7134 3.30317C11.5617 3.24319 11.4136 3.17968 11.2654 3.11265L10.969 2.97858C11.0678 2.81981 11.0219 2.60813 10.8596 2.50228C10.7009 2.39997 10.4927 2.44936 10.3798 2.59754L10.3163 2.68222L9.62127 2.36469C9.70948 2.20592 9.66008 2.00129 9.49779 1.89898C9.34255 1.80019 9.13439 1.84958 9.02502 1.99776L8.9721 2.06833L8.24884 1.74021C8.30176 1.5885 8.24531 1.4121 8.0936 1.32389C7.93836 1.23216 7.73373 1.28156 7.62789 1.42621L7.61025 1.44738L6.6753 1.024C6.58004 0.981667 6.46714 0.995779 6.38246 1.06281L4.90066 2.26943C4.46317 2.62577 3.91278 2.81981 3.35181 2.81981C2.60385 2.81981 1.90882 2.48817 1.43958 1.90603C1.32668 1.77902 1.16438 1.7014 0.987978 1.7014C0.673975 1.7014 0.419951 1.94837 0.405839 2.25532L0.01069 5.51177C-0.0457598 5.98806 0.12359 6.46083 0.465817 6.77836C0.74101 7.03238 1.09735 7.17351 1.47133 7.17351H1.7818V7.80504C1.7818 7.99556 1.92998 8.16491 2.1205 8.16844C2.31808 8.17549 2.48037 8.01673 2.48037 7.81915V7.17351H4.06096V7.80504C4.06096 7.99556 4.20915 8.16491 4.39966 8.16844C4.59724 8.17549 4.75953 8.01673 4.75953 7.81915V7.17351H6.34013V7.80504C6.34013 7.99556 6.48831 8.16491 6.67883 8.16844C6.8764 8.17549 7.03869 8.01673 7.03869 7.81915V7.17351H8.61929V7.80504C8.61929 7.99556 8.76747 8.16491 8.95799 8.16844C9.15556 8.17549 9.31785 8.01673 9.31785 7.81915V7.17351H10.8984V7.80504C10.8984 7.99556 11.0466 8.16491 11.2371 8.16844C11.4347 8.17549 11.597 8.01673 11.597 7.81915V7.17351H13.1776V7.80504C13.1776 7.99556 13.3258 8.16491 13.5163 8.16844C13.7139 8.17549 13.8762 8.01673 13.8762 7.81915V7.17351H14.4901C15.3156 7.17351 15.986 6.50317 15.986 5.67759L16.0001 5.64231ZM14.5077 6.47141H1.47133C1.27375 6.47141 1.08676 6.39732 0.942112 6.26325C0.765706 6.09743 0.677504 5.85046 0.705729 5.59644L1.07265 2.56579C1.6689 3.18321 2.4839 3.53249 3.35181 3.53249C4.07508 3.53249 4.78423 3.282 5.3452 2.82334L6.62238 1.78255L7.18335 2.03657L6.83759 2.50581C6.72116 2.66105 6.75644 2.87979 6.91168 2.99622C6.97519 3.04209 7.04928 3.06678 7.11984 3.06678C7.22568 3.06678 7.33153 3.01739 7.40209 2.92566L7.83957 2.33646L8.5452 2.65752L8.23472 3.07737C8.1183 3.2326 8.15358 3.45135 8.30881 3.56777C8.37232 3.61364 8.44641 3.63834 8.51697 3.63834C8.62282 3.63834 8.72866 3.58894 8.79922 3.49721L9.1979 2.95741L9.88941 3.27141L9.58952 3.67715C9.47309 3.83238 9.50837 4.05113 9.66361 4.16755C9.72712 4.21342 9.80121 4.23812 9.87177 4.23812C9.97761 4.23812 10.0835 4.18872 10.154 4.09699L10.5421 3.5713L10.9725 3.76535C11.0749 3.81121 11.1772 3.85355 11.2795 3.89942L11.0043 4.25576C10.8879 4.41099 10.9231 4.62974 11.0784 4.74617C11.1419 4.79203 11.216 4.81673 11.2865 4.81673C11.3924 4.81673 11.4982 4.76733 11.5688 4.6756L11.9569 4.14991C12.6449 4.39335 13.3717 4.58387 14.1337 4.71794C14.8993 4.85201 15.238 5.13779 15.298 5.69523C15.291 6.12213 14.9381 6.47141 14.5077 6.47141Z" fill="white"/>
</svg>
