<svg width="16" height="16" viewBox="0 0 16 16" fill="none" xmlns="http://www.w3.org/2000/svg">
<path d="M16.0001 8.64231C15.8696 7.30868 14.6559 7.09346 14.2572 7.0229C13.608 6.91 12.9836 6.75124 12.3944 6.55366C12.4826 6.3949 12.4332 6.19027 12.2709 6.08795C12.1156 5.98916 11.9075 6.03856 11.7981 6.18674L11.7134 6.30317C11.5617 6.24319 11.4136 6.17968 11.2654 6.11265L10.969 5.97858C11.0678 5.81981 11.0219 5.60813 10.8596 5.50228C10.7009 5.39997 10.4927 5.44936 10.3798 5.59754L10.3163 5.68222L9.62127 5.36469C9.70948 5.20592 9.66008 5.00129 9.49779 4.89898C9.34255 4.80019 9.13439 4.84958 9.02502 4.99776L8.9721 5.06833L8.24884 4.74021C8.30176 4.5885 8.24531 4.4121 8.0936 4.32389C7.93836 4.23216 7.73373 4.28156 7.62789 4.42621L7.61025 4.44738L6.6753 4.024C6.58004 3.98167 6.46714 3.99578 6.38246 4.06281L4.90066 5.26943C4.46317 5.62577 3.91278 5.81981 3.35181 5.81981C2.60385 5.81981 1.90882 5.48817 1.43958 4.90603C1.32668 4.77902 1.16438 4.7014 0.987978 4.7014C0.673975 4.7014 0.419951 4.94837 0.405839 5.25532L0.01069 8.51177C-0.0457598 8.98806 0.12359 9.46083 0.465817 9.77836C0.74101 10.0324 1.09735 10.1735 1.47133 10.1735H1.7818V10.805C1.7818 10.9956 1.92998 11.1649 2.1205 11.1684C2.31808 11.1755 2.48037 11.0167 2.48037 10.8192V10.1735H4.06097V10.805C4.06097 10.9956 4.20915 11.1649 4.39966 11.1684C4.59724 11.1755 4.75953 11.0167 4.75953 10.8192V10.1735H6.34013V10.805C6.34013 10.9956 6.48831 11.1649 6.67883 11.1684C6.8764 11.1755 7.03869 11.0167 7.03869 10.8192V10.1735H8.61929V10.805C8.61929 10.9956 8.76747 11.1649 8.95799 11.1684C9.15556 11.1755 9.31785 11.0167 9.31785 10.8192V10.1735H10.8984V10.805C10.8984 10.9956 11.0466 11.1649 11.2371 11.1684C11.4347 11.1755 11.597 11.0167 11.597 10.8192V10.1735H13.1776V10.805C13.1776 10.9956 13.3258 11.1649 13.5163 11.1684C13.7139 11.1755 13.8762 11.0167 13.8762 10.8192V10.1735H14.4901C15.3156 10.1735 15.986 9.50317 15.986 8.67759L16.0001 8.64231ZM14.5077 9.47141H1.47133C1.27375 9.47141 1.08676 9.39732 0.942112 9.26325C0.765706 9.09743 0.677504 8.85046 0.705729 8.59644L1.07265 5.56579C1.6689 6.18321 2.4839 6.53249 3.35181 6.53249C4.07508 6.53249 4.78423 6.282 5.3452 5.82334L6.62238 4.78255L7.18335 5.03657L6.83759 5.50581C6.72116 5.66105 6.75644 5.87979 6.91168 5.99622C6.97519 6.04209 7.04928 6.06678 7.11984 6.06678C7.22568 6.06678 7.33153 6.01739 7.40209 5.92566L7.83957 5.33646L8.5452 5.65752L8.23472 6.07737C8.1183 6.2326 8.15358 6.45135 8.30881 6.56777C8.37232 6.61364 8.44641 6.63834 8.51697 6.63834C8.62282 6.63834 8.72866 6.58894 8.79922 6.49721L9.1979 5.95741L9.88941 6.27141L9.58952 6.67715C9.47309 6.83238 9.50837 7.05113 9.66361 7.16755C9.72712 7.21342 9.80121 7.23812 9.87177 7.23812C9.97761 7.23812 10.0835 7.18872 10.154 7.09699L10.5421 6.5713L10.9725 6.76535C11.0749 6.81121 11.1772 6.85355 11.2795 6.89942L11.0043 7.25576C10.8879 7.41099 10.9231 7.62974 11.0784 7.74617C11.1419 7.79203 11.216 7.81673 11.2865 7.81673C11.3924 7.81673 11.4982 7.76733 11.5688 7.6756L11.9569 7.14991C12.6449 7.39335 13.3717 7.58387 14.1337 7.71794C14.8993 7.85201 15.238 8.13779 15.298 8.69523C15.291 9.12213 14.9381 9.47141 14.5077 9.47141Z" fill="white"/>
</svg>
