<svg width="12" height="12" viewBox="0 0 12 12" fill="none" xmlns="http://www.w3.org/2000/svg">
<path d="M6 0C2.688 0 0 2.688 0 6C0 9.312 2.688 12 6 12C9.312 12 12 9.312 12 6C12 2.688 9.312 0 6 0ZM6 0.6C7.056 0.6 8.04 0.918 8.868 1.446L8.7 1.8H6.6H6L4.968 1.296L5.178 0.678C5.448 0.63 5.718 0.6 6 0.6ZM4.518 0.828L4.314 1.446L2.778 2.214L2.028 2.364C2.7 1.638 3.552 1.104 4.518 0.828ZM6.6 2.4H8.4L10.014 4.554L9.264 6.096L7.686 6.468L5.718 4.164L6.6 2.4ZM2.496 2.796L3 4.8L2.268 6.636L0.732 7.164C0.648 6.786 0.6 6.402 0.6 6C0.6 4.86 0.954 3.816 1.554 2.946L2.496 2.796ZM11.136 4.332C11.31 4.854 11.4 5.418 11.4 6C11.4 6.864 11.178 7.674 10.818 8.4H10.2L9.696 6.396L10.596 4.596L11.136 4.332ZM3.6 4.8H5.4L7.086 6.768L6 8.4L4.104 8.868L2.718 7.014L3.6 4.8ZM6 9L7.8 10.2L7.278 11.232C6.864 11.328 6.438 11.4 6 11.4C4.95 11.4 3.978 11.1 3.15 10.578L3.846 9.546L6 9ZM10.2 9H10.5C9.9 9.9 9 10.602 7.986 11.004L8.4 10.2L10.2 9Z" fill="white"/>
</svg>
