<svg width="128" height="128" viewBox="0 0 128 128" fill="none" xmlns="http://www.w3.org/2000/svg">
<path d="M52.4504 104.948L69.642 75.1547L79.4626 58.1235L82.145 53.4887L89.7709 17.6522H76.7581L54.4345 41.1588V41.1477H34.7268C36.7995 39.9502 38.7171 38.7971 40.4795 37.6993C42.2419 36.6016 43.9932 35.515 45.7334 34.4505C47.7396 33.1865 49.5353 31.9003 51.1425 30.5919C52.7497 29.2946 54.1131 27.8532 55.2436 26.2897C56.3742 24.7263 57.261 22.9855 57.8928 21.0895C58.5246 19.1823 58.846 16.9647 58.846 14.4366C58.846 9.90162 57.2499 6.36454 54.0465 3.82537C50.8321 1.26404 46.0327 0 39.626 0C36.8882 0 34.1504 0.232849 31.4237 0.698547C28.6859 1.16424 26.07 1.81844 23.565 2.65004C21.06 3.49273 18.7101 4.49066 16.5155 5.6549C14.3097 6.81915 12.4143 8.10536 10.8071 9.51354L19.8075 23.6286C22.4788 21.0895 24.8286 19.2599 26.8681 18.1289C28.8965 16.998 30.8917 16.4214 32.8203 16.4214C35.6911 16.4214 37.121 17.6854 37.121 20.2246C37.121 21.0895 36.9769 21.8434 36.6665 22.4755C36.3673 23.1075 35.6357 23.8282 34.4608 24.6265C33.2969 25.4249 31.5567 26.4228 29.2623 27.6314C26.9568 28.8289 23.8089 30.4367 19.8075 32.4325C16.8701 33.9072 14.3208 35.4374 12.1483 37.0341C9.97578 38.6307 8.11363 40.4492 6.53968 42.4894C4.96572 44.5296 3.65779 46.8137 2.58262 49.3418C1.5407 51.892 0.665052 54.8304 0 58.1679H38.2848L23.0995 75.1215H58.5467L55.953 87.529L52.4504 104.948ZM57.0504 58.1013L66.9596 46.0819L64.3549 58.1013H57.0504Z" fill="white"/>
<path d="M91.0009 58.1348L95.0578 40.0059L74.7737 75.1217L74.7404 75.1549H94.9469L59.6216 128.001H80.7813L128 58.1348H91.0009Z" fill="white"/>
<path d="M119.011 77.05C115.763 90.3446 107.815 101.81 97.0195 109.582L89.1054 121.302C110.819 111.844 126.16 90.4666 126.858 65.4298L119.011 77.05ZM7.50349 63.6335C7.50349 62.8573 7.51458 62.0812 7.55891 61.305H1.26309C1.22983 62.0812 1.21875 62.8573 1.21875 63.6335C1.21875 95.9995 25.6816 122.655 57.1164 126.104L61.1178 120.127C31.3013 118.597 7.50349 93.8373 7.50349 63.6335ZM64.0551 0.775391C61.3062 0.775391 58.6017 0.952799 55.9414 1.29653C55.9636 1.30762 55.9747 1.32979 55.9969 1.34088C58.0364 2.95973 59.566 4.90014 60.5636 7.1621C61.7163 7.08449 62.8801 7.05122 64.0551 7.05122C74.2525 7.05122 83.8404 9.76779 92.1092 14.5135C92.5747 14.7796 93.0292 15.0457 93.4725 15.3229C107.394 23.8385 117.37 38.2086 119.953 54.9848H126.293C122.092 24.3597 95.8224 0.775391 64.0551 0.775391ZM15.8721 23.2841C12.314 27.5308 9.31021 32.2432 6.97145 37.3327C8.00228 36.3236 9.1107 35.3923 10.2967 34.5163C12.5911 32.8198 15.3289 31.1677 18.4103 29.6265C18.6653 29.4934 19.1641 29.2495 19.1641 29.2495L15.8721 23.2841Z" fill="white"/>
</svg>
