<svg width="16" height="20" viewBox="0 0 16 20" fill="none" xmlns="http://www.w3.org/2000/svg">
<path d="M6.88379 4.021V6.39844H5.77197V0H8.21973C8.93457 0 9.50146 0.186035 9.92041 0.558105C10.3423 0.930176 10.5532 1.42236 10.5532 2.03467C10.5532 2.66162 10.3467 3.14941 9.93359 3.49805C9.52344 3.84668 8.94775 4.021 8.20654 4.021H6.88379ZM6.88379 3.12891H8.21973C8.61523 3.12891 8.91699 3.03662 9.125 2.85205C9.33301 2.66455 9.43701 2.39502 9.43701 2.04346C9.43701 1.69775 9.33154 1.42236 9.12061 1.21729C8.90967 1.00928 8.61963 0.902344 8.25049 0.896484H6.88379V3.12891Z" fill="white"/>
<path d="M11.0092 10.6026L9.24918 7.93262H10.9392L11.9992 9.67262L13.0692 7.93262H14.7592L12.9792 10.6026L14.8392 13.3926H13.1492L11.9992 11.5226L10.8492 13.3926H9.15918L11.0092 10.6026Z" fill="#FF3030"/>
<path fill-rule="evenodd" clip-rule="evenodd" d="M11.4083 14.3928L11.9993 13.4318L12.5903 14.3928H13.9183C13.4452 17.2341 10.9755 19.4001 8 19.4001C4.68629 19.4001 2 16.7138 2 13.4001C2 10.1853 4.52841 7.56094 7.70516 7.40723L9.81055 10.6012L7.29639 14.3928H11.4083Z" fill="white"/>
<path fill-rule="evenodd" clip-rule="evenodd" d="M11.719 13.8876L11.4083 14.3928H8.93647L8 15.8001L6.104 16.2681L4.718 14.4141L5.6 12.2001H7.4L8.16119 13.0886L8.53659 12.5224L7.718 11.5641L8.6 9.8001H9.28249L8.88699 9.2001H8.6H8L6.968 8.6961L7.178 8.0781C7.448 8.0301 7.718 8.0001 8 8.0001C8.03225 8.0001 8.06444 8.00039 8.09656 8.00098L7.70517 7.40723C4.52994 7.56111 2 10.1869 2 13.4001C2 16.7121 4.688 19.4001 8 19.4001C10.9739 19.4001 13.4446 17.2329 13.9181 14.3928H13.3021C13.204 14.8884 13.0364 15.3597 12.818 15.8001H12.2L11.719 13.8876ZM6.314 8.8461L6.518 8.2281C5.552 8.5041 4.7 9.0381 4.028 9.7641L4.778 9.6141L6.314 8.8461ZM5 12.2001L4.496 10.1961L3.554 10.3461C2.954 11.2161 2.6 12.2601 2.6 13.4001C2.6 13.8021 2.648 14.1861 2.732 14.5641L4.268 14.0361L5 12.2001ZM9.8 17.6001L8 16.4001L5.846 16.9461L5.15 17.9781C5.978 18.5001 6.95 18.8001 8 18.8001C8.438 18.8001 8.864 18.7281 9.278 18.6321L9.8 17.6001ZM12.5 16.4001H12.2L10.4 17.6001L9.986 18.4041C11 18.0021 11.9 17.3001 12.5 16.4001Z" fill="black"/>
</svg>
