<svg width="16" height="16" viewBox="0 0 16 16" fill="none" xmlns="http://www.w3.org/2000/svg">
<path d="M11.0092 5.20271L9.24918 2.53271H10.9392L11.9992 4.27271L13.0692 2.53271H14.7592L12.9792 5.20271L14.8392 7.99271H13.1492L11.9992 6.12271L10.8492 7.99271H9.15918L11.0092 5.20271Z" fill="#FF3030"/>
<path fill-rule="evenodd" clip-rule="evenodd" d="M11.4083 8.99292L11.9993 8.03189L12.5903 8.99292H13.9183C13.4452 11.8342 10.9755 14.0002 8 14.0002C4.68629 14.0002 2 11.3139 2 8.00021C2 4.78535 4.52841 2.16104 7.70516 2.00732L9.81055 5.20129L7.29639 8.99292H11.4083Z" fill="white"/>
<path fill-rule="evenodd" clip-rule="evenodd" d="M11.719 8.4877L11.4083 8.99291H8.93647L8 10.4002L6.104 10.8682L4.718 9.0142L5.6 6.8002H7.4L8.16119 7.6887L8.53659 7.12255L7.718 6.1642L8.6 4.4002H9.28249L8.88699 3.8002H8.6H8L6.968 3.2962L7.178 2.6782C7.448 2.6302 7.718 2.6002 8 2.6002C8.03225 2.6002 8.06444 2.60049 8.09656 2.60108L7.70517 2.00732C4.52994 2.16121 2 4.78705 2 8.0002C2 11.3122 4.688 14.0002 8 14.0002C10.9739 14.0002 13.4446 11.833 13.9181 8.99291H13.3021C13.204 9.48845 13.0364 9.95978 12.818 10.4002H12.2L11.719 8.4877ZM6.314 3.4462L6.518 2.8282C5.552 3.1042 4.7 3.6382 4.028 4.3642L4.778 4.2142L6.314 3.4462ZM5 6.8002L4.496 4.7962L3.554 4.9462C2.954 5.8162 2.6 6.8602 2.6 8.0002C2.6 8.4022 2.648 8.7862 2.732 9.1642L4.268 8.6362L5 6.8002ZM9.8 12.2002L8 11.0002L5.846 11.5462L5.15 12.5782C5.978 13.1002 6.95 13.4002 8 13.4002C8.438 13.4002 8.864 13.3282 9.278 13.2322L9.8 12.2002ZM12.5 11.0002H12.2L10.4 12.2002L9.986 13.0042C11 12.6022 11.9 11.9002 12.5 11.0002Z" fill="black"/>
</svg>
