<svg width="16" height="20" viewBox="0 0 16 20" fill="none" xmlns="http://www.w3.org/2000/svg">
<path d="M6.88379 4.62256V7H5.77197V0.601562H8.21973C8.93457 0.601562 9.50146 0.787598 9.92041 1.15967C10.3423 1.53174 10.5532 2.02393 10.5532 2.63623C10.5532 3.26318 10.3467 3.75098 9.93359 4.09961C9.52344 4.44824 8.94775 4.62256 8.20654 4.62256H6.88379ZM6.88379 3.73047H8.21973C8.61523 3.73047 8.91699 3.63818 9.125 3.45361C9.33301 3.26611 9.43701 2.99658 9.43701 2.64502C9.43701 2.29932 9.33154 2.02393 9.12061 1.81885C8.90967 1.61084 8.61963 1.50391 8.25049 1.49805H6.88379V3.73047Z" fill="white"/>
<path d="M11.0092 11.21L9.24918 8.54004H10.9392L11.9992 10.28L13.0692 8.54004H14.7592L12.9792 11.21L14.8392 14H13.1492L11.9992 12.13L10.8492 14H9.15918L11.0092 11.21Z" fill="#FF0000"/>
<path fill-rule="evenodd" clip-rule="evenodd" d="M11.7203 14.4927L11.4084 15H8.93159L8 16.4L6.104 16.868L4.718 15.014L5.6 12.8H7.4L8.16396 13.6917L8.53936 13.1256L7.718 12.164L8.6 10.4H9.27773L8.88222 9.79997H8.6H8L6.968 9.29597L7.178 8.67797C7.448 8.62997 7.718 8.59997 8 8.59997C8.03064 8.59997 8.06122 8.60024 8.09174 8.60077L7.70055 8.00732C4.52749 8.16353 2 10.7884 2 14C2 17.312 4.688 20 8 20C10.9713 20 13.4404 17.8365 13.9169 15H13.3006C13.2023 15.4929 13.0353 15.9617 12.818 16.4H12.2L11.7203 14.4927ZM6.314 9.44597L6.518 8.82797C5.552 9.10397 4.7 9.63797 4.028 10.364L4.778 10.214L6.314 9.44597ZM5 12.8L4.496 10.796L3.554 10.946C2.954 11.816 2.6 12.86 2.6 14C2.6 14.402 2.648 14.786 2.732 15.164L4.268 14.636L5 12.8ZM9.8 18.2L8 17L5.846 17.546L5.15 18.578C5.978 19.1 6.95 19.4 8 19.4C8.438 19.4 8.864 19.328 9.278 19.232L9.8 18.2ZM12.5 17H12.2L10.4 18.2L9.986 19.004C11 18.602 11.9 17.9 12.5 17Z" fill="white"/>
</svg>
