<svg width="16" height="16" viewBox="0 0 16 16" fill="none" xmlns="http://www.w3.org/2000/svg">
<path d="M11.0092 5.20271L9.24918 2.53271H10.9392L11.9992 4.27271L13.0692 2.53271H14.7592L12.9792 5.20271L14.8392 7.99271H13.1492L11.9992 6.12271L10.8492 7.99271H9.15918L11.0092 5.20271Z" fill="#FF3030"/>
<path fill-rule="evenodd" clip-rule="evenodd" d="M11.7203 8.48542L11.4084 8.99268H8.93159L8 10.3926L6.104 10.8606L4.718 9.00665L5.6 6.79265H7.4L8.16396 7.68438L8.53936 7.11824L7.718 6.15665L8.6 4.39265H9.27773L8.88222 3.79265H8.6H8L6.968 3.28865L7.178 2.67065C7.448 2.62265 7.718 2.59265 8 2.59265C8.03064 2.59265 8.06122 2.59291 8.09174 2.59345L7.70055 2C4.52749 2.1562 2 4.78105 2 7.99265C2 11.3046 4.688 13.9926 8 13.9926C10.9713 13.9926 13.4404 11.8292 13.9169 8.99268H13.3006C13.2023 9.48555 13.0353 9.9544 12.818 10.3926H12.2L11.7203 8.48542ZM6.314 3.43865L6.518 2.82065C5.552 3.09665 4.7 3.63065 4.028 4.35665L4.778 4.20665L6.314 3.43865ZM5 6.79265L4.496 4.78865L3.554 4.93865C2.954 5.80865 2.6 6.85265 2.6 7.99265C2.6 8.39465 2.648 8.77865 2.732 9.15665L4.268 8.62865L5 6.79265ZM9.8 12.1926L8 10.9926L5.846 11.5386L5.15 12.5706C5.978 13.0926 6.95 13.3926 8 13.3926C8.438 13.3926 8.864 13.3206 9.278 13.2246L9.8 12.1926ZM12.5 10.9926H12.2L10.4 12.1926L9.986 12.9966C11 12.5946 11.9 11.8926 12.5 10.9926Z" fill="white"/>
</svg>
