<svg width="13" height="20" viewBox="0 0 13 20" fill="none" xmlns="http://www.w3.org/2000/svg">
<path d="M4.88379 4.62256V7H3.77197V0.601562H6.21973C6.93457 0.601562 7.50146 0.787598 7.92041 1.15967C8.34229 1.53174 8.55322 2.02393 8.55322 2.63623C8.55322 3.26318 8.34668 3.75098 7.93359 4.09961C7.52344 4.44824 6.94775 4.62256 6.20654 4.62256H4.88379ZM4.88379 3.73047H6.21973C6.61523 3.73047 6.91699 3.63818 7.125 3.45361C7.33301 3.26611 7.43701 2.99658 7.43701 2.64502C7.43701 2.29932 7.33154 2.02393 7.12061 1.81885C6.90967 1.61084 6.61963 1.50391 6.25049 1.49805H4.88379V3.73047Z" fill="white"/>
<path d="M9.00918 11.21L7.24918 8.54004H8.93918L9.99918 10.28L11.0692 8.54004H12.7592L10.9792 11.21L12.8392 14H11.1492L9.99918 12.13L8.84918 14H7.15918L9.00918 11.21Z" fill="#FF3030"/>
<path fill-rule="evenodd" clip-rule="evenodd" d="M9.72034 14.4927L9.40839 15H6.93159L6 16.4L4.104 16.868L2.718 15.014L3.6 12.8H5.4L6.16396 13.6917L6.53936 13.1256L5.718 12.164L6.6 10.4H7.27773L6.88222 9.79997H6.6H6L4.968 9.29597L5.178 8.67797C5.448 8.62997 5.718 8.59997 6 8.59997C6.03064 8.59997 6.06122 8.60024 6.09174 8.60077L5.70055 8.00732C2.52749 8.16353 0 10.7884 0 14C0 17.312 2.688 20 6 20C8.9713 20 11.4404 17.8365 11.9169 15H11.3006C11.2023 15.4929 11.0353 15.9617 10.818 16.4H10.2L9.72034 14.4927ZM4.314 9.44597L4.518 8.82797C3.552 9.10397 2.7 9.63797 2.028 10.364L2.778 10.214L4.314 9.44597ZM3 12.8L2.496 10.796L1.554 10.946C0.954 11.816 0.6 12.86 0.6 14C0.6 14.402 0.648 14.786 0.732 15.164L2.268 14.636L3 12.8ZM7.8 18.2L6 17L3.846 17.546L3.15 18.578C3.978 19.1 4.95 19.4 6 19.4C6.438 19.4 6.864 19.328 7.278 19.232L7.8 18.2ZM10.5 17H10.2L8.4 18.2L7.986 19.004C9 18.602 9.9 17.9 10.5 17Z" fill="white"/>
</svg>
