<svg width="12" height="20" viewBox="0 0 12 20" fill="none" xmlns="http://www.w3.org/2000/svg">
<path d="M5.58691 3.96777C5.58691 4.59473 5.47852 5.14551 5.26172 5.62012C5.04492 6.0918 4.73438 6.45508 4.33008 6.70996C3.92871 6.96191 3.46582 7.08789 2.94141 7.08789C2.42285 7.08789 1.95996 6.96191 1.55273 6.70996C1.14844 6.45508 0.834961 6.09326 0.612305 5.62451C0.392578 5.15576 0.28125 4.61523 0.27832 4.00293V3.64258C0.27832 3.01855 0.388184 2.46777 0.60791 1.99023C0.830566 1.5127 1.14258 1.14795 1.54395 0.895996C1.94824 0.641113 2.41113 0.513672 2.93262 0.513672C3.4541 0.513672 3.91553 0.639648 4.31689 0.891602C4.72119 1.14062 5.0332 1.50098 5.25293 1.97266C5.47266 2.44141 5.58398 2.98779 5.58691 3.61182V3.96777ZM4.4751 3.63379C4.4751 2.9248 4.34033 2.38135 4.0708 2.00342C3.8042 1.62549 3.4248 1.43652 2.93262 1.43652C2.45215 1.43652 2.07568 1.62549 1.80322 2.00342C1.53369 2.37842 1.396 2.91016 1.39014 3.59863V3.96777C1.39014 4.6709 1.52637 5.21436 1.79883 5.59814C2.07422 5.98193 2.45508 6.17383 2.94141 6.17383C3.43359 6.17383 3.81152 5.98633 4.0752 5.61133C4.3418 5.23633 4.4751 4.68848 4.4751 3.96777V3.63379Z" fill="#FF0000"/>
<path d="M11.5986 6.16943C11.3672 6.47119 11.0464 6.69971 10.6362 6.85498C10.2261 7.01025 9.76025 7.08789 9.23877 7.08789C8.70264 7.08789 8.22803 6.96631 7.81494 6.72314C7.40186 6.47998 7.08252 6.13281 6.85693 5.68164C6.63428 5.22754 6.51855 4.69873 6.50977 4.09521V3.59424C6.50977 2.62744 6.74121 1.87305 7.2041 1.33105C7.66699 0.786133 8.31299 0.513672 9.14209 0.513672C9.854 0.513672 10.4194 0.689453 10.8384 1.04102C11.2573 1.39258 11.5093 1.89941 11.5942 2.56152H10.5044C10.3813 1.79102 9.93457 1.40576 9.16406 1.40576C8.66602 1.40576 8.28662 1.58594 8.02588 1.94629C7.76807 2.30371 7.63477 2.82959 7.62598 3.52393V4.01611C7.62598 4.70752 7.771 5.24512 8.06104 5.62891C8.354 6.00977 8.75977 6.2002 9.27832 6.2002C9.84668 6.2002 10.251 6.07129 10.4912 5.81348V4.56104H9.17285V3.71729H11.5986V6.16943Z" fill="#FF0000"/>
<path d="M6 8C2.688 8 0 10.688 0 14C0 17.312 2.688 20 6 20C9.312 20 12 17.312 12 14C12 10.688 9.312 8 6 8ZM6 8.6C7.056 8.6 8.04 8.918 8.868 9.446L8.7 9.8H6.6H6L4.968 9.296L5.178 8.678C5.448 8.63 5.718 8.6 6 8.6ZM4.518 8.828L4.314 9.446L2.778 10.214L2.028 10.364C2.7 9.638 3.552 9.104 4.518 8.828ZM6.6 10.4H8.4L10.014 12.554L9.264 14.096L7.686 14.468L5.718 12.164L6.6 10.4ZM2.496 10.796L3 12.8L2.268 14.636L0.732 15.164C0.648 14.786 0.6 14.402 0.6 14C0.6 12.86 0.954 11.816 1.554 10.946L2.496 10.796ZM11.136 12.332C11.31 12.854 11.4 13.418 11.4 14C11.4 14.864 11.178 15.674 10.818 16.4H10.2L9.696 14.396L10.596 12.596L11.136 12.332ZM3.6 12.8H5.4L7.086 14.768L6 16.4L4.104 16.868L2.718 15.014L3.6 12.8ZM6 17L7.8 18.2L7.278 19.232C6.864 19.328 6.438 19.4 6 19.4C4.95 19.4 3.978 19.1 3.15 18.578L3.846 17.546L6 17ZM10.2 17H10.5C9.9 17.9 9 18.602 7.986 19.004L8.4 18.2L10.2 17Z" fill="#FF0000"/>
</svg>
