<svg width="16" height="20" viewBox="0 0 16 20" fill="none" xmlns="http://www.w3.org/2000/svg">
<path d="M7.58691 3.4541C7.58691 4.08105 7.47852 4.63184 7.26172 5.10645C7.04492 5.57812 6.73438 5.94141 6.33008 6.19629C5.92871 6.44824 5.46582 6.57422 4.94141 6.57422C4.42285 6.57422 3.95996 6.44824 3.55273 6.19629C3.14844 5.94141 2.83496 5.57959 2.6123 5.11084C2.39258 4.64209 2.28125 4.10156 2.27832 3.48926V3.12891C2.27832 2.50488 2.38818 1.9541 2.60791 1.47656C2.83057 0.999023 3.14258 0.634277 3.54395 0.382324C3.94824 0.127441 4.41113 0 4.93262 0C5.4541 0 5.91553 0.125977 6.31689 0.37793C6.72119 0.626953 7.0332 0.987305 7.25293 1.45898C7.47266 1.92773 7.58398 2.47412 7.58691 3.09814V3.4541ZM6.4751 3.12012C6.4751 2.41113 6.34033 1.86768 6.0708 1.48975C5.8042 1.11182 5.4248 0.922852 4.93262 0.922852C4.45215 0.922852 4.07568 1.11182 3.80322 1.48975C3.53369 1.86475 3.396 2.39648 3.39014 3.08496V3.4541C3.39014 4.15723 3.52637 4.70068 3.79883 5.08447C4.07422 5.46826 4.45508 5.66016 4.94141 5.66016C5.43359 5.66016 5.81152 5.47266 6.0752 5.09766C6.3418 4.72266 6.4751 4.1748 6.4751 3.4541V3.12012Z" fill="#FF0000"/>
<path d="M13.5986 5.65576C13.3672 5.95752 13.0464 6.18604 12.6362 6.34131C12.2261 6.49658 11.7603 6.57422 11.2388 6.57422C10.7026 6.57422 10.228 6.45264 9.81494 6.20947C9.40186 5.96631 9.08252 5.61914 8.85693 5.16797C8.63428 4.71387 8.51855 4.18506 8.50977 3.58154V3.08057C8.50977 2.11377 8.74121 1.35938 9.2041 0.817383C9.66699 0.272461 10.313 0 11.1421 0C11.854 0 12.4194 0.175781 12.8384 0.527344C13.2573 0.878906 13.5093 1.38574 13.5942 2.04785H12.5044C12.3813 1.27734 11.9346 0.89209 11.1641 0.89209C10.666 0.89209 10.2866 1.07227 10.0259 1.43262C9.76807 1.79004 9.63477 2.31592 9.62598 3.01025V3.50244C9.62598 4.19385 9.771 4.73145 10.061 5.11523C10.354 5.49609 10.7598 5.68652 11.2783 5.68652C11.8467 5.68652 12.251 5.55762 12.4912 5.2998V4.04736H11.1729V3.20361H13.5986V5.65576Z" fill="#FF0000"/>
<path d="M8 7.48633C4.688 7.48633 2 10.1743 2 13.4863C2 16.7983 4.688 19.4863 8 19.4863C11.312 19.4863 14 16.7983 14 13.4863C14 10.1743 11.312 7.48633 8 7.48633ZM8 8.08633C9.056 8.08633 10.04 8.40433 10.868 8.93233L10.7 9.28633H8.6H8L6.968 8.78233L7.178 8.16433C7.448 8.11633 7.718 8.08633 8 8.08633ZM6.518 8.31433L6.314 8.93233L4.778 9.70033L4.028 9.85033C4.7 9.12433 5.552 8.59033 6.518 8.31433ZM8.6 9.88633H10.4L12.014 12.0403L11.264 13.5823L9.686 13.9543L7.718 11.6503L8.6 9.88633ZM4.496 10.2823L5 12.2863L4.268 14.1223L2.732 14.6503C2.648 14.2723 2.6 13.8883 2.6 13.4863C2.6 12.3463 2.954 11.3023 3.554 10.4323L4.496 10.2823ZM13.136 11.8183C13.31 12.3403 13.4 12.9043 13.4 13.4863C13.4 14.3503 13.178 15.1603 12.818 15.8863H12.2L11.696 13.8823L12.596 12.0823L13.136 11.8183ZM5.6 12.2863H7.4L9.086 14.2543L8 15.8863L6.104 16.3543L4.718 14.5003L5.6 12.2863ZM8 16.4863L9.8 17.6863L9.278 18.7183C8.864 18.8143 8.438 18.8863 8 18.8863C6.95 18.8863 5.978 18.5863 5.15 18.0643L5.846 17.0323L8 16.4863ZM12.2 16.4863H12.5C11.9 17.3863 11 18.0883 9.986 18.4903L10.4 17.6863L12.2 16.4863Z" fill="#FF0000"/>
</svg>
