<svg width="12" height="20" viewBox="0 0 12 20" fill="none" xmlns="http://www.w3.org/2000/svg">
<path d="M4.88379 4.62256V7H3.77197V0.601562H6.21973C6.93457 0.601562 7.50146 0.787598 7.92041 1.15967C8.34229 1.53174 8.55322 2.02393 8.55322 2.63623C8.55322 3.26318 8.34668 3.75098 7.93359 4.09961C7.52344 4.44824 6.94775 4.62256 6.20654 4.62256H4.88379ZM4.88379 3.73047H6.21973C6.61523 3.73047 6.91699 3.63818 7.125 3.45361C7.33301 3.26611 7.43701 2.99658 7.43701 2.64502C7.43701 2.29932 7.33154 2.02393 7.12061 1.81885C6.90967 1.61084 6.61963 1.50391 6.25049 1.49805H4.88379V3.73047Z" fill="white"/>
<path d="M6 8C2.688 8 0 10.688 0 14C0 17.312 2.688 20 6 20C9.312 20 12 17.312 12 14C12 10.688 9.312 8 6 8ZM6 8.6C7.056 8.6 8.04 8.918 8.868 9.446L8.7 9.8H6.6H6L4.968 9.296L5.178 8.678C5.448 8.63 5.718 8.6 6 8.6ZM4.518 8.828L4.314 9.446L2.778 10.214L2.028 10.364C2.7 9.638 3.552 9.104 4.518 8.828ZM6.6 10.4H8.4L10.014 12.554L9.264 14.096L7.686 14.468L5.718 12.164L6.6 10.4ZM2.496 10.796L3 12.8L2.268 14.636L0.732 15.164C0.648 14.786 0.6 14.402 0.6 14C0.6 12.86 0.954 11.816 1.554 10.946L2.496 10.796ZM11.136 12.332C11.31 12.854 11.4 13.418 11.4 14C11.4 14.864 11.178 15.674 10.818 16.4H10.2L9.696 14.396L10.596 12.596L11.136 12.332ZM3.6 12.8H5.4L7.086 14.768L6 16.4L4.104 16.868L2.718 15.014L3.6 12.8ZM6 17L7.8 18.2L7.278 19.232C6.864 19.328 6.438 19.4 6 19.4C4.95 19.4 3.978 19.1 3.15 18.578L3.846 17.546L6 17ZM10.2 17H10.5C9.9 17.9 9 18.602 7.986 19.004L8.4 18.2L10.2 17Z" fill="white"/>
</svg>
