<svg width="16" height="20" viewBox="0 0 16 20" fill="none" xmlns="http://www.w3.org/2000/svg">
<path d="M6.88379 4.021V6.39844H5.77197V0H8.21973C8.93457 0 9.50146 0.186035 9.92041 0.558105C10.3423 0.930176 10.5532 1.42236 10.5532 2.03467C10.5532 2.66162 10.3467 3.14941 9.93359 3.49805C9.52344 3.84668 8.94775 4.021 8.20654 4.021H6.88379ZM6.88379 3.12891H8.21973C8.61523 3.12891 8.91699 3.03662 9.125 2.85205C9.33301 2.66455 9.43701 2.39502 9.43701 2.04346C9.43701 1.69775 9.33154 1.42236 9.12061 1.21729C8.90967 1.00928 8.61963 0.902344 8.25049 0.896484H6.88379V3.12891Z" fill="white"/>
<path d="M8 7.39844C4.688 7.39844 2 10.0864 2 13.3984C2 16.7104 4.688 19.3984 8 19.3984C11.312 19.3984 14 16.7104 14 13.3984C14 10.0864 11.312 7.39844 8 7.39844ZM8 7.99844C9.056 7.99844 10.04 8.31644 10.868 8.84444L10.7 9.19844H8.6H8L6.968 8.69444L7.178 8.07644C7.448 8.02844 7.718 7.99844 8 7.99844ZM6.518 8.22644L6.314 8.84444L4.778 9.61244L4.028 9.76244C4.7 9.03644 5.552 8.50244 6.518 8.22644ZM8.6 9.79844H10.4L12.014 11.9524L11.264 13.4944L9.686 13.8664L7.718 11.5624L8.6 9.79844ZM4.496 10.1944L5 12.1984L4.268 14.0344L2.732 14.5624C2.648 14.1844 2.6 13.8004 2.6 13.3984C2.6 12.2584 2.954 11.2144 3.554 10.3444L4.496 10.1944ZM13.136 11.7304C13.31 12.2524 13.4 12.8164 13.4 13.3984C13.4 14.2624 13.178 15.0724 12.818 15.7984H12.2L11.696 13.7944L12.596 11.9944L13.136 11.7304ZM5.6 12.1984H7.4L9.086 14.1664L8 15.7984L6.104 16.2664L4.718 14.4124L5.6 12.1984ZM8 16.3984L9.8 17.5984L9.278 18.6304C8.864 18.7264 8.438 18.7984 8 18.7984C6.95 18.7984 5.978 18.4984 5.15 17.9764L5.846 16.9444L8 16.3984ZM12.2 16.3984H12.5C11.9 17.2984 11 18.0004 9.986 18.4024L10.4 17.5984L12.2 16.3984Z" fill="white"/>
</svg>
