<svg width="223" height="437" viewBox="0 0 223 437" fill="none" xmlns="http://www.w3.org/2000/svg">
<path d="M5.43579 14.2002L2 10.7645L2.7 10.0645L5.43579 12.8002L8.17157 10.0645L8.87157 10.7645L5.43579 14.2002Z" fill="#FF0000"/>
<path d="M4.93555 7H5.93555V13.5H4.93555V7Z" fill="#FF0000"/>
<path d="M13.1716 6.13579L10.4358 3.4L7.7 6.13579L7 5.43579L10.4358 2L13.8716 5.43579L13.1716 6.13579Z" fill="#00FF00"/>
<path d="M9.93555 2.69922H10.9355V9.19922H9.93555V2.69922Z" fill="#00FF00"/>
<path d="M221.72 416.422L217.699 412.4L213.7 416.401L213 415.701L217.699 411L222.42 415.722L221.72 416.422Z" fill="#00FF00"/>
<path d="M217.198 411.699H218.198V420.5H217.198V411.699Z" fill="#00FF00"/>
<path d="M213.7 431.078L217.722 435.1L221.72 431.099L222.42 431.799L217.722 436.5L213 431.778L213.7 431.078Z" fill="#FF0000"/>
<path d="M218.222 435.801L217.222 435.801L217.222 427L218.222 427L218.222 435.801Z" fill="#FF0000"/>
</svg>
