<svg width="24" height="17" viewBox="0 0 24 17" fill="none" xmlns="http://www.w3.org/2000/svg">
<g clip-path="url(#clip0)">
<path d="M24 0H0V16H24V0Z" fill="#9D1F0D"/>
<path d="M9.68982 0.54C9.74982 0.42 9.87982 0.15 9.95982 0H6.81982C6.85982 0.17 6.99982 0.78 6.96982 1.03C6.93982 1.33 7.02982 1.22 7.10982 1.34C7.18982 1.45 7.16982 1.63 7.11982 1.76C7.06982 1.9 7.03982 2.2 7.19982 2.55C7.35982 2.9 7.54982 3.35 7.69982 3.37C7.85982 3.39 7.81982 3.62 7.92982 3.53C8.03982 3.45 8.05982 3.26 8.14982 2.99C8.23982 2.72 8.23982 2.52 8.46982 2.39C8.69982 2.26 9.32982 1.82 9.46982 1.66C9.60982 1.51 9.76982 1.44 9.71982 1.17C9.65982 0.91 9.60982 0.69 9.68982 0.54Z" fill="#7A170C"/>
<path d="M23.9999 1.59957C23.9899 1.59957 23.9899 1.59957 23.9799 1.59957C23.6699 1.66957 23.1299 1.42957 23.0399 1.37957C22.9499 1.32957 22.2199 1.09957 21.8399 1.08957C21.6499 1.08957 20.8399 0.90957 20.5099 0.75957C20.1699 0.60957 19.8799 -0.10043 19.2399 0.00957021C19.1599 0.0295702 18.3799 0.12957 18.1899 0.30957C17.9899 0.48957 17.8999 0.68957 17.7899 0.72957C17.6799 0.76957 17.3599 0.74957 17.3599 0.90957C17.3599 1.06957 17.4699 1.53957 17.3399 1.44957C17.2099 1.35957 17.0799 1.13957 17.0199 1.29957C16.9599 1.46957 16.8599 1.55957 16.7999 1.49957C16.7399 1.43957 16.4399 1.49957 16.3999 1.59957C16.3599 1.69957 15.9699 1.93957 15.8099 1.96957C15.6399 1.99957 15.5699 2.07957 15.4799 2.11957C15.3899 2.15957 14.7199 2.46957 14.5899 2.35957C14.4599 2.24957 14.4199 2.31957 14.3399 2.33957C14.3399 2.33957 14.0999 2.29957 13.9499 2.10957C13.7999 1.91957 13.7699 1.98957 13.5999 1.80957C13.4299 1.62957 13.3899 1.45957 13.2299 1.52957C13.0599 1.59957 12.3499 2.32957 12.0699 2.66957C11.7899 2.99957 11.2999 3.33957 11.5499 3.57957C11.7999 3.81957 11.9199 3.78957 11.9499 3.91957C11.9799 4.05957 12.0099 4.19957 12.0499 4.24957C12.0899 4.29957 12.3299 4.48957 12.4499 4.23957C12.5699 3.98957 12.5899 3.81957 12.7299 3.85957C12.8699 3.89957 12.8999 3.98957 12.8299 4.17957C12.7599 4.36957 12.7099 4.64957 12.4699 4.63957C12.2399 4.62957 11.9799 4.48957 11.8999 4.51957C11.8199 4.54957 11.7699 4.61957 11.6799 4.69957C11.5899 4.76957 11.3099 5.10957 11.1299 5.16957C10.9399 5.21957 10.7099 5.17957 10.8399 5.32957C10.9699 5.48957 11.1599 5.82957 10.9799 5.81957C10.7999 5.80957 10.4999 5.77957 10.4899 5.95957C10.4699 6.12957 10.3899 6.23957 10.4299 6.35957C10.4699 6.47957 10.5999 6.72957 10.7599 6.63957C10.9199 6.55957 11.2199 6.46957 11.2999 6.28957C11.3799 6.09957 11.4699 5.89957 11.6699 5.90957C11.8699 5.91957 12.3499 6.17957 12.3099 6.26957C12.2799 6.35957 12.1899 6.57957 12.2999 6.50957C12.4199 6.43957 12.5199 6.35957 12.5899 6.32957C12.6599 6.29957 12.7499 6.42957 12.7799 6.47957C12.8099 6.52957 13.0099 6.62957 13.0499 6.46957C13.0899 6.30957 13.1299 6.42957 13.2499 6.47957C13.3699 6.52957 13.7199 6.56957 13.7799 6.60957C13.8299 6.64957 13.9399 6.77957 13.7999 6.93957C13.6599 7.09957 13.4999 7.16957 13.2699 7.03957C13.0399 6.91957 12.7999 7.13957 12.5399 7.01957C12.2799 6.89957 12.3999 6.71957 12.0899 6.58957C11.7899 6.46957 11.0899 6.61957 10.8699 6.67957C10.6499 6.73957 10.6399 6.75957 10.5499 6.86957C10.4699 6.99957 9.87988 7.66957 9.87988 8.04957C9.87988 8.42957 10.0999 9.46957 10.7999 9.36957C11.4999 9.26957 11.9299 9.32957 11.8499 9.52957C11.7699 9.73957 11.8099 9.78957 11.9399 10.0296C12.0699 10.2696 12.3699 11.8496 12.4199 12.1096C12.4699 12.3696 12.3799 12.6996 12.7099 12.6496C13.0399 12.5996 13.3899 12.5096 13.5199 12.2096C13.6599 11.9096 13.6799 11.5696 13.8599 11.3896C14.0399 11.2096 14.2599 11.2096 14.2799 10.9596C14.2999 10.7096 14.2299 10.1196 14.3499 9.97957C14.4699 9.84957 15.0199 9.22957 15.0799 8.97957C15.1399 8.72957 15.2199 8.66957 14.9899 8.66957C14.7599 8.66957 14.3699 8.63957 14.2599 8.42957C14.1499 8.21957 13.8899 7.82957 13.8899 7.72957C13.8899 7.63957 14.0499 7.64957 14.1299 7.83957C14.2099 8.03957 14.4899 8.62957 14.8099 8.49957C15.1199 8.37957 15.5699 8.22957 15.5799 8.02957C15.5899 7.82957 15.4399 7.60957 15.2799 7.61957C15.1199 7.62957 14.9599 7.51957 14.9599 7.39957C14.9599 7.28957 14.9899 7.32957 15.1799 7.39957C15.3699 7.46957 15.4299 7.59957 15.7099 7.61957C15.9999 7.63957 16.3199 7.91957 16.4799 8.03957C16.6399 8.16957 16.9199 9.01957 16.9799 9.09957C17.0499 9.17957 17.1299 9.17957 17.1999 9.01957C17.2699 8.84957 17.5599 8.31957 17.7299 8.17957C17.8899 8.06957 17.8999 7.86957 17.9999 7.98957C18.0999 8.11957 18.5299 8.42957 18.5499 8.60957C18.5799 8.79957 18.5299 9.19957 18.6199 9.07957C18.7099 8.95957 18.7799 8.69957 18.8599 8.80957C18.9399 8.91957 18.9399 9.09957 19.1299 8.95957C19.3199 8.82957 19.6499 8.76957 19.4699 8.48957C19.2999 8.19957 19.4099 8.01957 19.5199 8.01957C19.6299 8.00957 20.3699 7.86957 20.3899 7.46957C20.4099 7.06957 20.1299 6.84957 20.2599 6.63957C20.3899 6.42957 20.5799 6.23957 20.6199 6.36957C20.6599 6.48957 20.5199 6.89957 20.6899 6.83957C20.8699 6.77957 21.0799 6.77957 21.0799 6.64957C21.0799 6.51957 21.0399 6.20957 21.1199 6.12957C21.1999 6.04957 21.7799 5.49957 21.8499 5.27957C21.9199 5.05957 22.0499 4.87957 21.9399 4.70957C21.8299 4.54957 21.6399 4.59957 21.7899 4.38957C21.9399 4.18957 22.1899 3.98957 22.3699 3.97957C22.9699 3.92957 22.7999 4.66957 22.8099 4.82957C22.8199 4.99957 22.8199 5.40957 22.9099 5.19957C22.9999 4.99957 23.0999 4.73957 23.2799 4.56957C23.4599 4.38957 23.5599 4.27957 23.5699 4.11957C23.5799 3.95957 23.5899 3.90957 23.7599 3.82957C23.7999 3.79957 23.8899 3.76957 23.9999 3.71957V1.59957Z" fill="#7A170C"/>
<path d="M8.67 9.98996C8.47 9.82996 7.74 9.71996 7.71 9.69996C7.69 9.67996 7.2 9.23996 7.08 9.08996C6.96 8.93996 6.74 8.88996 6.62 8.82996C6.5 8.76996 5.71 8.50996 5.52 8.63996C5.33 8.77996 5.07 8.85996 4.97 8.63996C4.88 8.42996 4.83 8.39996 4.68 8.35996C4.54 8.32996 4.61 8.15996 4.61 8.01996C4.6 7.86996 4.52 7.71996 4.42 7.81996C4.32 7.92996 3.98 8.19996 3.93 8.05996C3.88 7.92996 3.64 7.36996 4 7.25996C4.35 7.15996 4.65 7.21996 4.74 7.30996C4.83 7.40996 4.9 7.66996 5.01 7.63996C5.12 7.59996 5.06 7.40996 5.1 7.24996C5.14 7.07996 5.4 6.86996 5.52 6.63996C5.63 6.39996 5.66 6.26996 5.8 6.20996C5.95 6.14996 6.03 6.05996 6.17 5.95996C6.31 5.85996 6.53 5.75996 6.61 5.70996C6.69 5.65996 7.04 5.47996 7.16 5.50996C7.28 5.53996 7.36 5.49996 7.26 5.32996C7.16 5.14996 7.03 4.61996 6.85 4.37996C6.66 4.13996 6.64 4.07996 6.55 3.84996C6.46 3.62996 6.36 3.42996 6.29 3.58996C6.22 3.73996 6.07 3.94996 5.99 3.75996C5.91 3.55996 5.92 3.56996 5.82 3.47996C5.72 3.37996 5.64 3.35996 5.5 3.31996C5.37 3.26996 5.23 3.32996 5.24 3.45996C5.25 3.58996 5.11 3.83996 5.2 4.00996C5.29 4.18996 5.37 4.36996 5.25 4.42996C5.13 4.48996 5.25 4.86996 5.13 4.85996C5.01 4.84996 4.96 4.86996 4.96 4.73996C4.96 4.60996 5.02 4.39996 4.8 4.39996C4.58 4.39996 4.46 4.28996 4.3 4.16996C4.13 4.04996 4.01 4.11996 4.04 3.85996C4.08 3.59996 4.03 3.49996 4.2 3.35996C4.38 3.20996 4.42 3.12996 4.55 3.18996C4.68 3.24996 4.77 3.24996 4.85 3.17996C4.93 3.10996 5.08 3.13996 5.08 3.04996C5.08 2.95996 4.91 2.95996 4.93 2.79996C4.95 2.63996 5.03 2.72996 5.05 2.46996C5.08 2.20996 4.86 1.80996 4.65 1.86996C4.43 1.91996 4.09 2.21996 4.03 2.07996C3.96 1.94996 3.82 2.00996 3.55 2.10996C3.28 2.19996 2.17 2.00996 2.1 1.91996C2.1 1.91996 1.91 1.78996 1.81 1.85996C1.71 1.92996 1.32 1.89996 1.2 1.87996C1.07 1.85996 0.97 2.00996 0.82 1.95996C0.67 1.90996 0.15 1.80996 0.03 1.71996C0.02 1.71996 0.01 1.71996 0 1.70996V3.77996C0.21 3.67996 0.46 3.70996 0.54 3.87996C0.65 4.08996 0.71 4.39996 1.06 4.57996C1.41 4.75996 1.72 5.25996 1.7 5.48996C1.69 5.70996 1.72 6.46996 2.08 6.89996C2.45 7.32996 2.82 8.11996 2.85 7.92996C2.88 7.74996 2.88 7.56996 2.97 7.69996C3.04 7.83996 3.25 8.24996 3.59 8.31996C3.93 8.38996 4.09 8.41996 4.22 8.53996C4.35 8.66996 4.46 8.73996 4.6 8.79996C4.74 8.85996 5.08 9.04996 5.14 9.16996C5.21 9.29996 5.18 9.45996 5.11 9.64996C5.04 9.83996 4.96 10.02 5.06 10.2C5.16 10.37 5.37 10.88 5.53 11C5.7 11.12 5.87 11.3 5.83 11.56C5.79 11.82 5.6 12.93 5.63 13.18C5.65 13.43 5.4 14.25 5.6 14.58C5.8 14.91 6.13 15.01 6.28 14.97C6.43 14.93 6.31 14.92 6.24 14.76C6.17 14.61 6.18 14.41 6.26 14.26C6.34 14.11 6.34 14.03 6.3 13.87C6.26 13.7 6.28 13.61 6.38 13.49C6.48 13.37 6.89 13.03 7.02 12.88C7.15 12.74 7.96 11.74 8.07 11.66C8.18 11.58 8.42 11.38 8.5 11.07C8.58 10.76 8.87 10.15 8.67 9.98996Z" fill="#7A170C"/>
<path d="M21.9302 5.65982C21.8702 5.79982 21.8402 5.81982 21.7502 6.09982C21.6602 6.37982 21.6902 6.29982 21.6002 6.47982C21.5102 6.65982 21.3602 6.67982 21.2202 6.78982C21.0702 6.90982 21.0302 7.12982 21.0302 7.12982C20.9002 7.30982 21.5502 6.87982 21.7802 6.74982C22.0102 6.61982 21.9502 6.45982 21.9702 6.24982C21.9902 6.02982 22.0502 5.99982 22.1502 5.89982C22.2502 5.80982 22.1702 5.61982 22.1202 5.48982C22.0602 5.34982 21.9802 5.51982 21.9302 5.65982Z" fill="#7A170C"/>
<path d="M19.9002 10.3596C19.9702 10.3096 19.9202 10.1896 20.0302 10.2096C20.1402 10.2296 20.2402 10.2896 20.3702 10.2196C20.5002 10.1496 20.6102 10.1796 20.5902 10.0496C20.5702 9.92962 20.5902 9.75962 20.5602 9.65962C20.5302 9.55962 20.3502 9.51962 20.2202 9.63962C20.0902 9.74962 19.9202 9.92962 19.9202 9.86962C19.9202 9.80962 19.9902 9.63962 19.9602 9.53962C19.9202 9.43962 19.9802 9.33962 19.7802 9.42962C19.5802 9.50962 19.4802 9.48962 19.4102 9.60962C19.3402 9.72962 19.2602 9.91962 19.1402 9.79962C19.0202 9.67962 18.6802 9.41962 18.6802 9.41962C18.6502 9.38962 18.2602 9.06962 18.3902 9.28962C18.5302 9.50962 18.7402 9.87962 18.8402 10.0096C18.9402 10.1496 19.0402 10.2996 19.1702 10.2296C19.2902 10.1596 19.3102 10.1296 19.4702 10.2296C19.6002 10.3096 19.8302 10.4196 19.9002 10.3596Z" fill="#7A170C"/>
<path d="M22.3201 10.0699C22.1301 9.98991 22.2101 9.91991 21.9901 9.86991C21.7601 9.82991 21.5701 9.86991 21.5101 9.82991C21.4501 9.78991 21.1601 9.68991 21.2001 9.82991C21.2401 9.97991 21.5001 10.0199 21.5801 10.0599C21.6501 10.0999 21.4801 10.1899 21.6101 10.2699C21.7301 10.3399 21.8301 10.4699 21.9901 10.4299C22.1601 10.3899 22.2201 10.4799 22.3601 10.5099C22.5001 10.5299 22.6401 10.4899 22.5801 10.4299C22.5201 10.3699 22.4801 10.2799 22.4901 10.2099C22.4901 10.1299 22.5101 10.1599 22.3201 10.0699Z" fill="#7A170C"/>
<path d="M22.2202 10.9995C22.1502 10.7895 21.9802 10.4095 21.9402 10.5995C21.9002 10.7795 21.6402 10.9195 21.5402 10.9095C21.4502 10.8995 21.5002 10.8095 21.5002 10.7195C21.5002 10.6395 21.4502 10.5595 21.2202 10.6195C20.9902 10.6795 20.9502 10.8995 20.8802 10.8795C20.8202 10.8595 20.6602 10.8195 20.5602 10.9295C20.4602 11.0495 20.3702 11.2595 20.2602 11.3095C20.1402 11.3495 19.7402 11.3995 19.7402 11.5695C19.7402 11.7395 19.8402 11.9795 19.8302 12.1195C19.8202 12.2495 19.6402 12.5595 19.8802 12.6595C20.0202 12.7095 20.1102 12.7195 20.2802 12.6395C20.4302 12.5595 21.1202 12.3395 21.2102 12.4095C21.3002 12.4895 21.4402 12.6595 21.5102 12.6895C21.6302 12.7595 21.6702 12.9395 21.8402 12.9795C22.0102 13.0195 22.1402 13.0395 22.2102 13.0395C22.2802 13.0395 22.5302 12.9595 22.5902 12.8095C22.6502 12.6595 22.7602 12.3195 22.8102 12.1595C22.8602 11.9995 22.9102 11.8095 22.7602 11.6595C22.6002 11.5095 22.2902 11.1995 22.2202 10.9995Z" fill="#7A170C"/>
<path d="M11.9999 5.55957C7.68994 5.55957 4.18994 9.05957 4.18994 13.3596C4.18994 14.2896 4.34994 15.1696 4.64994 15.9996H5.18994C4.85994 15.1796 4.68994 14.2896 4.68994 13.3596C4.68994 9.32957 7.96994 6.04957 11.9999 6.04957C16.0299 6.04957 19.2999 9.32957 19.2999 13.3596C19.2999 14.2896 19.1299 15.1796 18.7899 15.9996H19.3299C19.6399 15.1696 19.7999 14.2896 19.7999 13.3596C19.7999 9.05957 16.2999 5.55957 11.9999 5.55957Z" fill="#F5F5F5"/>
<path d="M18.3297 13.36C18.3297 13.87 18.2697 14.37 18.1497 14.85C18.1297 14.95 18.0997 15.06 18.0697 15.16C18.0697 15.16 18.0497 15.23 18.0097 15.36C17.9797 15.44 17.9497 15.52 17.9197 15.6C17.8697 15.71 17.8197 15.85 17.7397 16H17.4697C17.4697 16 17.4697 16.01 17.4597 16.02C17.4597 16.01 17.4597 16.01 17.4597 16H11.6197L11.5197 16.05L11.4997 16.03L11.4697 16H7.32969L7.30969 16.05L7.25969 16.21L7.06969 16.15L6.61969 16H6.26969C6.23969 15.95 6.21969 15.91 6.19969 15.86C6.14969 15.76 6.10969 15.66 6.07969 15.56C6.06969 15.54 6.05969 15.53 6.05969 15.51C6.05969 15.5 6.04969 15.48 6.03969 15.45C6.01969 15.39 5.99969 15.33 5.97969 15.28C5.94969 15.2 5.92969 15.11 5.90969 15.03C5.87969 14.93 5.84969 14.83 5.83969 14.73C5.81969 14.67 5.80969 14.61 5.79969 14.56C5.78969 14.49 5.76969 14.42 5.75969 14.35C5.73969 14.25 5.72969 14.14 5.70969 14.02V13.98C5.68969 13.78 5.67969 13.57 5.67969 13.36C5.67969 13.2 5.68969 13.04 5.69969 12.88C5.69969 12.86 5.70969 12.83 5.70969 12.81C5.70969 12.69 5.72969 12.57 5.74969 12.46C5.96969 10.89 6.76969 9.50004 7.92969 8.53004C8.00969 8.46004 8.09969 8.39004 8.18969 8.33004C8.25969 8.27004 8.32969 8.22004 8.39969 8.17004C8.49969 8.10004 8.59969 8.04004 8.69969 7.98004C9.06969 7.74004 9.47969 7.55004 9.89969 7.41004C9.99969 7.36004 10.1097 7.33004 10.2097 7.30004C10.2597 7.29004 10.3097 7.27004 10.3497 7.26004C10.4197 7.24004 10.4797 7.22004 10.5497 7.21004C10.5897 7.20004 10.6297 7.19004 10.6697 7.18004C10.7797 7.16004 10.8897 7.14004 10.9997 7.13004C11.3197 7.07004 11.6597 7.04004 11.9997 7.04004C13.2297 7.04004 14.3697 7.39004 15.3397 8.00004C15.4497 8.06004 15.5497 8.12004 15.6397 8.19004C15.9397 8.40004 16.2197 8.63004 16.4797 8.89004C16.5397 8.95004 16.5997 9.02004 16.6597 9.09004C16.9697 9.42004 17.2397 9.79004 17.4697 10.19C17.4997 10.24 17.5097 10.26 17.5097 10.26C17.5697 10.35 17.6197 10.44 17.6597 10.54V10.55C18.0897 11.4 18.3297 12.35 18.3297 13.36Z" fill="#F5F5F5"/>
<path d="M17.7897 10.24V10.23L17.7297 10.13C17.7197 10.12 17.6797 10.06 17.6197 9.96004C17.5897 9.92004 17.5597 9.87004 17.5297 9.82004C17.4797 9.75004 17.4297 9.67004 17.3697 9.58004C17.2597 9.43004 17.1197 9.25004 16.9797 9.08004C16.6297 8.67004 16.2297 8.30004 15.7797 7.98004C15.7597 7.97004 15.7497 7.96004 15.7297 7.95004H15.7197C14.6597 7.22004 13.3797 6.79004 11.9997 6.79004C11.5597 6.79004 11.1397 6.83004 10.7297 6.91004L10.6197 6.93004C10.6097 6.93004 10.5597 6.94004 10.4797 6.97004C10.3597 7.00004 10.2397 7.03004 10.1197 7.07004C10.0097 7.10004 9.88969 7.15004 9.75969 7.20004C9.48969 7.28004 9.22969 7.40004 8.97969 7.54004C8.83969 7.62004 8.67969 7.71004 8.52969 7.80004C8.42969 7.86004 8.33969 7.91004 8.24969 7.98004C8.19969 8.01004 8.14969 8.04004 8.09969 8.08004C8.04969 8.12004 7.99969 8.16004 7.95969 8.20004C6.59969 9.26004 5.65969 10.85 5.46969 12.67L5.45969 12.77C5.45969 12.79 5.44969 12.81 5.44969 12.83C5.43969 13 5.42969 13.18 5.42969 13.36C5.42969 13.56 5.43969 13.76 5.45969 13.96C5.45969 14.01 5.45969 14.05 5.46969 14.1C5.47969 14.2 5.49969 14.3 5.50969 14.39C5.52969 14.45 5.53969 14.52 5.54969 14.58C5.55969 14.64 5.56969 14.7 5.57969 14.75C5.62969 14.97 5.68969 15.16 5.72969 15.31C5.73969 15.35 5.74969 15.39 5.76969 15.43C5.77969 15.46 5.78969 15.49 5.79969 15.52C5.80969 15.56 5.81969 15.59 5.82969 15.61C5.84969 15.67 5.86969 15.72 5.89969 15.77C5.91969 15.85 5.94969 15.93 5.98969 16H6.53969C6.52969 15.99 6.51969 15.98 6.52969 15.97C6.46969 15.87 6.42969 15.77 6.38969 15.66C6.33969 15.56 6.29969 15.46 6.26969 15.36C6.26969 15.35 6.25969 15.34 6.25969 15.33C6.23969 15.27 6.21969 15.21 6.20969 15.15C6.19969 15.1 6.17969 15.04 6.15969 14.97C6.10969 14.83 6.07969 14.69 6.05969 14.54C6.03969 14.46 6.01969 14.38 6.00969 14.29C5.98969 14.19 5.96969 14.09 5.95969 13.98C5.93969 13.78 5.92969 13.57 5.92969 13.36C5.92969 13.21 5.93969 13.07 5.94969 12.93C5.94969 12.82 5.95969 12.71 5.97969 12.6C5.98969 12.48 6.00969 12.36 6.02969 12.24C6.27969 10.93 6.93969 9.77004 7.88969 8.89004C7.97969 8.81004 8.06969 8.73004 8.15969 8.66004C8.24969 8.58004 8.33969 8.51004 8.42969 8.45004C8.44969 8.44004 8.45969 8.43004 8.47969 8.42004C8.56969 8.34004 8.67969 8.27004 8.77969 8.22004C8.87969 8.16004 8.97969 8.10004 9.07969 8.05004C9.15969 8.01004 9.22969 7.97004 9.29969 7.94004C9.66969 7.73004 10.0697 7.58004 10.4897 7.48004C10.5397 7.47004 10.5797 7.46004 10.6097 7.45004C10.7097 7.42004 10.8097 7.40004 10.9197 7.38004C11.0297 7.36004 11.1397 7.34004 11.2497 7.33004C11.4897 7.30004 11.7397 7.28004 11.9997 7.28004C13.0997 7.28004 14.1397 7.57004 15.0297 8.09004C15.1297 8.14004 15.2197 8.20004 15.3097 8.27004C15.3997 8.32004 15.4997 8.38004 15.5797 8.45004H15.5897C15.8297 8.63004 16.0397 8.81004 16.2497 9.01004C16.3797 9.14004 16.4997 9.28004 16.6097 9.41004C16.6597 9.48004 16.7197 9.54004 16.7697 9.61004C16.9197 9.77004 17.0297 9.95004 17.1397 10.13C17.1797 10.19 17.2097 10.24 17.2397 10.28C17.2997 10.37 17.3497 10.46 17.3897 10.55V10.56C17.4497 10.66 17.4997 10.75 17.5397 10.86C17.8897 11.62 18.0797 12.47 18.0797 13.36C18.0797 13.78 18.0397 14.18 17.9597 14.57V14.58C17.9397 14.69 17.9097 14.79 17.8797 14.89C17.8597 15 17.8297 15.1 17.7897 15.21C17.7897 15.23 17.7797 15.24 17.7797 15.26C17.7397 15.36 17.6897 15.5 17.6197 15.67C17.5797 15.77 17.5297 15.88 17.4697 16H18.0197C18.0697 15.89 18.1097 15.8 18.1397 15.71C18.1797 15.61 18.2097 15.51 18.2497 15.41C18.2797 15.34 18.2997 15.28 18.2997 15.25C18.3097 15.24 18.3097 15.23 18.3097 15.23L18.3297 15.13V15.12C18.4997 14.56 18.5797 13.97 18.5797 13.36C18.5797 12.23 18.2897 11.17 17.7897 10.24Z" fill="#231F20"/>
<path d="M11.5699 15.7493L9.6499 13.7393L10.9699 11.2793L13.7099 11.7793L14.0799 14.5393L11.5699 15.7493Z" fill="#231F20"/>
<path d="M13.7301 11.9498V11.9398L13.7101 11.7798L13.9301 11.5798V11.5698L13.6301 11.5198L11.0801 11.0498L11.1801 11.3198L10.9701 11.2798L10.9301 11.3598L10.7801 11.6398V11.6498L10.3501 12.4398L9.7801 13.4898L10.0401 13.4798V13.5198L11.0201 11.6998L11.0501 11.6598L11.1001 11.5598L11.2801 11.5898H11.2901L13.4801 11.9898L13.7601 14.0198L14.0301 14.1698L13.7301 11.9498ZM13.7301 11.9498V11.9398L13.7101 11.7798L13.9301 11.5798V11.5698L13.6301 11.5198L11.0801 11.0498L11.1801 11.3198L10.9701 11.2798L10.9301 11.3598L10.7801 11.6398V11.6498L10.3501 12.4398L9.7801 13.4898L10.0401 13.4798V13.5198L11.0201 11.6998L11.0501 11.6598L11.1001 11.5598L11.2801 11.5898H11.2901L13.4801 11.9898L13.7601 14.0198L14.0301 14.1698L13.7301 11.9498ZM13.7301 11.9498V11.9398L13.7101 11.7798L13.9301 11.5798V11.5698L13.6301 11.5198L11.0801 11.0498L11.1801 11.3198L10.9701 11.2798L10.9301 11.3598L10.7801 11.6398V11.6498L10.3501 12.4398L9.7801 13.4898L10.0401 13.4798V13.5198L11.0201 11.6998L11.0501 11.6598L11.1001 11.5598L11.2801 11.5898H11.2901L13.4801 11.9898L13.7601 14.0198L14.0301 14.1698L13.7301 11.9498ZM13.7301 11.9498V11.9398L13.7101 11.7798L13.9301 11.5798V11.5698L13.6301 11.5198L11.0801 11.0498L11.1801 11.3198L10.9701 11.2798L10.9301 11.3598L10.7801 11.6398V11.6498L10.3501 12.4398L9.7801 13.4898L10.0401 13.4798V13.5198L11.0201 11.6998L11.0501 11.6598L11.1001 11.5598L11.2801 11.5898H11.2901L13.4801 11.9898L13.7601 14.0198L14.0301 14.1698L13.7301 11.9498ZM13.7301 11.9498V11.9398L13.7101 11.7798L13.9301 11.5798V11.5698L13.6301 11.5198L11.0801 11.0498L11.1801 11.3198L10.9701 11.2798L10.9301 11.3598L10.7801 11.6398V11.6498L10.3501 12.4398L9.7801 13.4898L10.0401 13.4798V13.5198L11.0201 11.6998L11.0501 11.6598L11.1001 11.5598L11.2801 11.5898H11.2901L13.4801 11.9898L13.7601 14.0198L14.0301 14.1698L13.7301 11.9498ZM13.7301 11.9498V11.9398L13.7101 11.7798L13.9301 11.5798V11.5698L13.6301 11.5198L11.0801 11.0498L11.1801 11.3198L10.9701 11.2798L10.9301 11.3598L10.7801 11.6398V11.6498L10.3501 12.4398L9.7801 13.4898L10.0401 13.4798V13.5198L11.0201 11.6998L11.0501 11.6598L11.1001 11.5598L11.2801 11.5898H11.2901L13.4801 11.9898L13.7601 14.0198L14.0301 14.1698L13.7301 11.9498ZM13.7301 11.9498V11.9398L13.7101 11.7798L13.9301 11.5798V11.5698L13.6301 11.5198L11.0801 11.0498L11.1801 11.3198L10.9701 11.2798L10.9301 11.3598L10.7801 11.6398V11.6498L10.3501 12.4398L9.7801 13.4898L10.0401 13.4798V13.5198L11.0201 11.6998L11.0501 11.6598L11.1001 11.5598L11.2801 11.5898H11.2901L13.4801 11.9898L13.7601 14.0198L14.0301 14.1698L13.7301 11.9498ZM14.3401 14.6398V14.6298L14.3001 14.3298L13.9701 11.8698L13.9301 11.5798V11.5698L13.6301 11.5198L11.0801 11.0498H11.0701L10.8301 11.0098L10.8101 11.0598L10.6501 11.3398L9.5001 13.4998L9.3701 13.7498L9.3501 13.7798L9.5501 13.9898L11.3001 15.8198L11.4701 15.9998L11.5001 16.0298L11.5201 16.0498L11.6201 15.9998L11.7901 15.9198L14.1101 14.7998H14.1201L14.3501 14.6798L14.3401 14.6398ZM13.8101 14.3898L13.5901 14.4898L11.9801 15.2698L11.6801 15.4198L11.6301 15.4398L11.4601 15.2598L10.0601 13.7998L9.9501 13.6898L10.0401 13.5198L11.0201 11.6998L11.0501 11.6598L11.1001 11.5598L11.2801 11.5898H11.2901L13.4801 11.9898L13.7601 14.0198L13.8001 14.3198L13.8101 14.3898ZM13.7301 11.9498V11.9398L13.7101 11.7798L13.9301 11.5798V11.5698L13.6301 11.5198L11.0801 11.0498L11.1801 11.3198L10.9701 11.2798L10.9301 11.3598L10.7801 11.6398V11.6498L10.3501 12.4398L9.7801 13.4898L10.0401 13.4798V13.5198L11.0201 11.6998L11.0501 11.6598L11.1001 11.5598L11.2801 11.5898H11.2901L13.4801 11.9898L13.7601 14.0198L14.0301 14.1698L13.7301 11.9498ZM13.7301 11.9498V11.9398L13.7101 11.7798L13.9301 11.5798V11.5698L13.6301 11.5198L11.0801 11.0498L11.1801 11.3198L10.9701 11.2798L10.9301 11.3598L10.7801 11.6398V11.6498L10.3501 12.4398L9.7801 13.4898L10.0401 13.4798V13.5198L11.0201 11.6998L11.0501 11.6598L11.1001 11.5598L11.2801 11.5898H11.2901L13.4801 11.9898L13.7601 14.0198L14.0301 14.1698L13.7301 11.9498ZM13.7301 11.9498V11.9398L13.7101 11.7798L13.9301 11.5798V11.5698L13.6301 11.5198L11.0801 11.0498L11.1801 11.3198L10.9701 11.2798L10.9301 11.3598L10.7801 11.6398V11.6498L10.3501 12.4398L9.7801 13.4898L10.0401 13.4798V13.5198L11.0201 11.6998L11.0501 11.6598L11.1001 11.5598L11.2801 11.5898H11.2901L13.4801 11.9898L13.7601 14.0198L14.0301 14.1698L13.7301 11.9498ZM13.7301 11.9498V11.9398L13.7101 11.7798L13.9301 11.5798V11.5698L13.6301 11.5198L11.0801 11.0498L11.1801 11.3198L10.9701 11.2798L10.9301 11.3598L10.7801 11.6398V11.6498L10.3501 12.4398L9.7801 13.4898L10.0401 13.4798V13.5198L11.0201 11.6998L11.0501 11.6598L11.1001 11.5598L11.2801 11.5898H11.2901L13.4801 11.9898L13.7601 14.0198L14.0301 14.1698L13.7301 11.9498ZM13.7301 11.9498V11.9398L13.7101 11.7798L13.9301 11.5798V11.5698L13.6301 11.5198L11.0801 11.0498L11.1801 11.3198L10.9701 11.2798L10.9301 11.3598L10.7801 11.6398V11.6498L10.3501 12.4398L9.7801 13.4898L10.0401 13.4798V13.5198L11.0201 11.6998L11.0501 11.6598L11.1001 11.5598L11.2801 11.5898H11.2901L13.4801 11.9898L13.7601 14.0198L14.0301 14.1698L13.7301 11.9498ZM13.7301 11.9498V11.9398L13.7101 11.7798L13.9301 11.5798V11.5698L13.6301 11.5198L11.0801 11.0498L11.1801 11.3198L10.9701 11.2798L10.9301 11.3598L10.7801 11.6398V11.6498L10.3501 12.4398L9.7801 13.4898L10.0401 13.4798V13.5198L11.0201 11.6998L11.0501 11.6598L11.1001 11.5598L11.2801 11.5898H11.2901L13.4801 11.9898L13.7601 14.0198L14.0301 14.1698L13.7301 11.9498ZM13.7301 11.9498V11.9398L13.7101 11.7798L13.9301 11.5798V11.5698L13.6301 11.5198L11.0801 11.0498L11.1801 11.3198L10.9701 11.2798L10.9301 11.3598L10.7801 11.6398V11.6498L10.3501 12.4398L9.7801 13.4898L10.0401 13.4798V13.5198L11.0201 11.6998L11.0501 11.6598L11.1001 11.5598L11.2801 11.5898H11.2901L13.4801 11.9898L13.7601 14.0198L14.0301 14.1698L13.7301 11.9498Z" fill="#231F20"/>
<path d="M8.19008 8.30969L8.08008 9.55969H10.2301L11.5301 7.86969L10.6701 7.17969C10.6701 7.17969 9.44008 7.41969 8.19008 8.30969Z" fill="#231F20"/>
<path d="M11.7301 7.72016L11.7201 7.71016L11.2501 7.33016L11.0001 7.13016L10.7301 6.91016L10.6201 6.93016C10.6101 6.93016 10.5601 6.94016 10.4801 6.97016C10.3601 7.00016 10.2401 7.03016 10.1201 7.07016C10.0101 7.10016 9.89006 7.15016 9.76006 7.20016C9.53006 7.28016 9.27006 7.40016 8.98006 7.54016C8.84006 7.62016 8.68006 7.71016 8.53006 7.80016C8.43006 7.86016 8.34006 7.91016 8.25006 7.98016C8.20006 8.01016 8.15006 8.04016 8.10006 8.08016C8.08006 8.09016 8.07006 8.10016 8.05006 8.11016L7.96006 8.18016V8.20016L7.93006 8.53016L7.89006 8.89016L7.83006 9.58016L7.81006 9.81016H10.3501L10.5001 9.62016L11.5901 8.19016L11.7601 7.98016L11.8701 7.83016L11.7301 7.72016ZM10.2801 9.08016L10.1101 9.31016H8.35006L8.43006 8.45016C8.45006 8.44016 8.46006 8.43016 8.48006 8.42016C8.58006 8.35016 8.68006 8.28016 8.78006 8.22016C8.88006 8.16016 8.98006 8.10016 9.08006 8.05016C9.16006 8.01016 9.23006 7.97016 9.30006 7.94016C9.81006 7.70016 10.2401 7.56016 10.4901 7.48016C10.5401 7.47016 10.5801 7.46016 10.6101 7.45016L11.1801 7.91016L10.2801 9.07016V9.08016Z" fill="#231F20"/>
<path d="M5.70978 12.8103L6.72978 12.0303L7.79978 13.8403L7.09978 15.9003L6.06978 15.5603C6.07978 15.5603 5.51978 14.0903 5.70978 12.8103Z" fill="#231F20"/>
<path d="M7.44986 14.0902L7.00987 15.4102L7.03986 15.3802L7.20986 15.5702L7.70986 14.0802L7.44986 14.0902ZM7.44986 14.0902L7.00987 15.4102L7.03986 15.3802L7.20986 15.5702L7.70986 14.0802L7.44986 14.0902ZM7.92986 13.5702L7.02987 12.0402L6.87986 11.7902L6.79987 11.6602L6.57986 11.8302L6.02987 12.2402L5.74986 12.4602L5.46986 12.6702L5.45986 12.7702C5.45986 12.7902 5.44986 12.8102 5.44986 12.8302C5.39986 13.2102 5.40986 13.6002 5.45986 13.9602C5.45986 14.0102 5.45986 14.0502 5.46986 14.1002C5.47986 14.2002 5.49987 14.3002 5.50987 14.3902C5.52987 14.4502 5.53987 14.5202 5.54987 14.5802C5.55987 14.6402 5.56986 14.7002 5.57986 14.7502C5.62986 14.9702 5.68986 15.1602 5.72986 15.3102C5.73986 15.3502 5.74986 15.3902 5.76986 15.4302C5.77986 15.4602 5.78987 15.4902 5.79987 15.5202C5.80986 15.5602 5.81986 15.5902 5.82986 15.6102C5.83986 15.6302 5.83986 15.6402 5.83986 15.6502L5.87986 15.7602L5.89986 15.7702L6.19986 15.8602L6.52987 15.9702L6.61986 16.0002L7.06986 16.1502L7.25987 16.2102L7.30986 16.0502L7.32986 16.0002L7.40986 15.7802L7.97986 14.0702L8.06986 13.8102L7.92986 13.5702ZM7.51986 13.8702L7.44986 14.0802V14.0902L6.94986 15.5902L6.86986 15.5602L6.84986 15.5502H6.83986L6.26986 15.3602C6.26986 15.3502 6.25987 15.3402 6.25987 15.3302C6.23987 15.2702 6.21986 15.2102 6.20986 15.1502C6.19986 15.1002 6.17986 15.0402 6.15986 14.9702C6.12986 14.8402 6.08986 14.7002 6.05986 14.5402C6.03986 14.4602 6.01987 14.3802 6.00987 14.2902C5.98987 14.1902 5.96986 14.0902 5.95986 13.9802C5.91986 13.6402 5.89986 13.2802 5.93986 12.9402L5.94986 12.9302L6.65986 12.3902L7.42986 13.7102L7.43986 13.7202L7.49986 13.8402L7.51986 13.8702ZM7.44986 14.0902L7.00987 15.4102L7.03986 15.3802L7.20986 15.5702L7.70986 14.0802L7.44986 14.0902Z" fill="#231F20"/>
<path d="M18.0701 15.1596C18.0701 15.1596 18.0501 15.2296 18.0101 15.3596C17.9801 15.4396 17.9501 15.5196 17.9201 15.5996C17.8701 15.7096 17.8201 15.8496 17.7401 15.9996H17.4701C17.4701 15.9996 17.4701 16.0096 17.4601 16.0196C17.4601 16.0096 17.4601 16.0096 17.4601 15.9996H15.5801L15.6001 15.6596V15.6496L15.6101 15.3996L15.6301 15.3796L15.8501 15.2296L17.1301 14.3096L17.3701 14.1396L17.5301 14.3696L17.8801 14.8896L18.0701 15.1596Z" fill="#231F20"/>
<path d="M15.6001 15.65V15.66L15.5801 16H15.8201L15.8401 15.79L15.6001 15.65ZM15.6001 15.66L15.5801 16H15.8201L15.8401 15.79L15.6001 15.66ZM18.1501 14.85L17.9601 14.58V14.57L17.6001 14.04L17.4301 13.79L17.3301 13.86L17.1001 14.03L15.6201 15.09L15.4001 15.25L15.3701 15.27L15.3601 15.51V15.52L15.3301 16H15.8201L15.8401 15.79L15.8501 15.53L15.8701 15.52L16.0901 15.36L17.3101 14.49L17.7901 15.21C17.7901 15.23 17.7801 15.24 17.7801 15.26C17.7401 15.36 17.6901 15.5 17.6201 15.67C17.5801 15.77 17.5301 15.88 17.4701 16H18.0201C18.0701 15.89 18.1101 15.8 18.1401 15.71C18.1801 15.61 18.2101 15.51 18.2501 15.41C18.2801 15.34 18.3001 15.28 18.3001 15.25C18.3101 15.24 18.3101 15.23 18.3101 15.23L18.3301 15.13V15.12L18.1501 14.85ZM17.4601 16C17.4601 16.01 17.4601 16.01 17.4601 16.02C17.4701 16.01 17.4701 16 17.4701 16H17.4601ZM15.6001 15.66L15.5801 16H15.8201L15.8401 15.79L15.6001 15.66Z" fill="#231F20"/>
<path d="M15.6499 8.19016C15.5899 8.16016 14.3999 8.54016 14.3999 8.54016L15.0199 10.5802L17.0599 11.3602L17.5099 10.2502C17.5099 10.2602 16.6099 8.75016 15.6499 8.19016Z" fill="#231F20"/>
<path d="M17.7298 10.1298C17.7198 10.1198 17.6798 10.0598 17.6198 9.95979C17.5898 9.91979 17.5598 9.86979 17.5298 9.81979C17.4798 9.74979 17.4298 9.66979 17.3698 9.57979C17.2598 9.42979 17.1198 9.24979 16.9798 9.07979C16.6398 8.65979 16.2198 8.22979 15.7798 7.97979C15.7598 7.96979 15.7498 7.95979 15.7298 7.94979H15.7198C15.6598 7.92979 15.5698 7.93979 15.3398 7.99979C15.2598 8.01979 15.1598 8.04979 15.0298 8.08979C14.8498 8.13979 14.6198 8.20979 14.3298 8.30979L14.0898 8.37979L14.1298 8.51979L14.2198 8.78979L14.7398 10.5098L14.8198 10.7798L15.0698 10.8798L16.7598 11.5198L17.0298 11.6198L17.2098 11.6898L17.2698 11.5398L17.5398 10.8598L17.6598 10.5498V10.5398L17.7898 10.2398V10.2298L17.7298 10.1298ZM16.9298 11.0498L15.2298 10.3998L14.7698 8.91979L14.7098 8.70979C14.7398 8.69979 14.7798 8.68979 14.8098 8.67979H14.8198C14.9298 8.63979 15.0298 8.60979 15.1298 8.57979C15.3298 8.51979 15.4898 8.46979 15.5798 8.44979H15.5898C15.8198 8.58979 16.0398 8.78979 16.2498 9.00979C16.3798 9.13979 16.4998 9.27979 16.6098 9.40979C16.6598 9.47979 16.7198 9.53979 16.7698 9.60979C16.9198 9.80979 17.0398 9.98979 17.1398 10.1298C17.1798 10.1898 17.2098 10.2398 17.2398 10.2798L16.9298 11.0498Z" fill="#231F20"/>
<path d="M8.05014 9.1744L6.38281 12.1719L6.81976 12.4149L8.48709 9.41745L8.05014 9.1744Z" fill="#231F20"/>
<path d="M10.288 9.07319L9.82373 9.25879L10.8297 11.775L11.2939 11.5894L10.288 9.07319Z" fill="#231F20"/>
<path d="M11.3072 7.61817L11.1953 8.10547L15.0352 8.98724L15.1471 8.49994L11.3072 7.61817Z" fill="#231F20"/>
<path d="M14.9334 10.344L13.4775 11.6562L13.8123 12.0276L15.2682 10.7154L14.9334 10.344Z" fill="#231F20"/>
<path d="M13.6168 13.9201L13.3657 14.3525L16.038 15.9043L16.2891 15.4719L13.6168 13.9201Z" fill="#231F20"/>
<path d="M17.2095 11.0911L16.7139 11.1572L17.1491 14.4183L17.6447 14.3521L17.2095 11.0911Z" fill="#231F20"/>
<path d="M12.01 15.1703L11.98 15.2703L11.89 15.5903L11.79 15.9203L11.77 16.0003H11.62L11.52 16.0503L11.5 16.0303L11.47 16.0003H11.25L11.3 15.8203L11.38 15.5403L11.46 15.2603L11.53 15.0303L12.01 15.1703Z" fill="#231F20"/>
<path d="M7.40992 15.7799L7.60992 15.9999H7.32992L7.30992 16.0499L7.25992 16.2099L7.06992 16.1499L6.92992 15.9999L6.72992 15.7799L6.66992 15.7099L6.83992 15.5499H6.84992L7.00992 15.4099L7.03992 15.3799L7.20992 15.5699L7.40992 15.7799Z" fill="#231F20"/>
<path d="M10.0471 13.4721L7.42969 13.5879L7.45179 14.0874L10.0692 13.9716L10.0471 13.4721Z" fill="#231F20"/>
</g>
<defs>
<clipPath id="clip0">
<rect width="24" height="16.21" fill="white"/>
</clipPath>
</defs>
</svg>
