<svg width="27" height="18" viewBox="0 0 27 18" fill="none" xmlns="http://www.w3.org/2000/svg">
<path d="M27 0H0V18H27V0Z" fill="#304256"/>
<path d="M2.97992 9.06996H10.0999C10.1799 9.06996 10.1799 8.93996 10.0999 8.93996H2.97992C2.89992 8.92996 2.89992 9.06996 2.97992 9.06996Z" fill="#1F2D38" stroke="#1F2D38" stroke-width="0.5669" stroke-miterlimit="10"/>
<path d="M9.36004 16.3101L11.86 11.9701C11.9 11.9001 11.79 11.8301 11.75 11.9001L9.25004 16.2401C9.20004 16.3201 9.31004 16.3801 9.36004 16.3101Z" fill="#1F2D38" stroke="#1F2D38" stroke-width="0.5669" stroke-miterlimit="10"/>
<path d="M17.7599 16.24L15.2599 11.9C15.2199 11.83 15.0999 11.89 15.1499 11.97L17.6499 16.31C17.6899 16.38 17.7999 16.32 17.7599 16.24Z" fill="#1F2D38" stroke="#1F2D38" stroke-width="0.5669" stroke-miterlimit="10"/>
<path d="M24.0198 8.92969H16.8998C16.8198 8.92969 16.8198 9.05969 16.8998 9.05969H24.0198C24.0998 9.06969 24.0998 8.92969 24.0198 8.92969Z" fill="#1F2D38" stroke="#1F2D38" stroke-width="0.5669" stroke-miterlimit="10"/>
<path d="M17.64 1.69008L15.14 6.03008C15.1 6.10008 15.21 6.17008 15.25 6.10008L17.75 1.76008C17.8 1.68008 17.69 1.62008 17.64 1.69008Z" fill="#1F2D38" stroke="#1F2D38" stroke-width="0.5669" stroke-miterlimit="10"/>
<path d="M9.23982 1.76008L11.7398 6.10008C11.7798 6.17008 11.8998 6.11008 11.8498 6.03008L9.34982 1.69008C9.30982 1.62008 9.19982 1.68008 9.23982 1.76008Z" fill="#1F2D38" stroke="#1F2D38" stroke-width="0.5669" stroke-miterlimit="10"/>
<path d="M14.7598 1.26968L14.2798 4.07968C14.2698 4.15968 14.3998 4.18968 14.4098 4.09968L14.8898 1.28968C14.9098 1.20968 14.7798 1.18968 14.7598 1.26968Z" fill="#1F2D38" stroke="#1F2D38" stroke-width="0.5669" stroke-miterlimit="10"/>
<path d="M7.4398 4.03941L9.6298 5.86941C9.6998 5.91941 9.7798 5.81941 9.7098 5.76941L7.5198 3.93941C7.4598 3.88941 7.3698 3.98941 7.4398 4.03941Z" fill="#1F2D38" stroke="#1F2D38" stroke-width="0.5669" stroke-miterlimit="10"/>
<path d="M6.17988 11.77L8.85988 10.78C8.93988 10.75 8.88988 10.63 8.80988 10.66L6.12988 11.65C6.04988 11.67 6.09988 11.8 6.17988 11.77Z" fill="#1F2D38" stroke="#1F2D38" stroke-width="0.5669" stroke-miterlimit="10"/>
<path d="M12.24 16.7298L12.72 13.9198C12.73 13.8398 12.6 13.8098 12.59 13.8998L12.11 16.7098C12.09 16.7898 12.22 16.8098 12.24 16.7298Z" fill="#1F2D38" stroke="#1F2D38" stroke-width="0.5669" stroke-miterlimit="10"/>
<path d="M19.56 13.9598L17.37 12.1298C17.3 12.0798 17.22 12.1798 17.29 12.2298L19.48 14.0598C19.54 14.1098 19.63 14.0098 19.56 13.9598Z" fill="#1F2D38" stroke="#1F2D38" stroke-width="0.5669" stroke-miterlimit="10"/>
<path d="M20.8199 6.23006L18.1399 7.22006C18.0599 7.25006 18.1099 7.37006 18.1899 7.34006L20.8699 6.35006C20.9499 6.33006 20.8999 6.20006 20.8199 6.23006Z" fill="#1F2D38" stroke="#1F2D38" stroke-width="0.5669" stroke-miterlimit="10"/>
<path d="M7.29971 6.78005L10.6397 8.01005C10.7197 8.04005 10.7697 7.92005 10.6897 7.89005L7.33971 6.66005C7.25971 6.63005 7.21971 6.75005 7.29971 6.78005Z" fill="#1F2D38" stroke="#1F2D38" stroke-width="0.5669" stroke-miterlimit="10"/>
<path d="M5.89981 6.2702L6.50981 6.5002C6.58981 6.5202 6.63981 6.4002 6.55981 6.3702L5.93981 6.1402C5.85981 6.1102 5.81981 6.2402 5.89981 6.2702Z" fill="#1F2D38" stroke="#1F2D38" stroke-width="0.5669" stroke-miterlimit="10"/>
<path d="M8.47985 13.2598L11.2099 10.9798C11.2799 10.9298 11.1899 10.8198 11.1299 10.8798L8.39985 13.1598C8.32985 13.2198 8.40985 13.3198 8.47985 13.2598Z" fill="#1F2D38" stroke="#1F2D38" stroke-width="0.5669" stroke-miterlimit="10"/>
<path d="M7.32986 14.2201L7.83986 13.8001C7.90986 13.7501 7.81986 13.6401 7.75986 13.7001L7.24986 14.1201C7.17986 14.1701 7.26986 14.2701 7.32986 14.2201Z" fill="#1F2D38" stroke="#1F2D38" stroke-width="0.5669" stroke-miterlimit="10"/>
<path d="M14.6798 15.4799L14.0798 11.9699C14.0698 11.8899 13.9398 11.9099 13.9498 11.9899L14.5498 15.4999C14.5698 15.5899 14.6998 15.5599 14.6798 15.4799Z" fill="#1F2D38" stroke="#1F2D38" stroke-width="0.5669" stroke-miterlimit="10"/>
<path d="M14.9398 16.95L14.8298 16.3C14.8198 16.22 14.6898 16.24 14.6998 16.32L14.8098 16.97C14.8198 17.06 14.9498 17.04 14.9398 16.95Z" fill="#1F2D38" stroke="#1F2D38" stroke-width="0.5669" stroke-miterlimit="10"/>
<path d="M19.6998 11.2201L16.3598 9.99013C16.2798 9.96013 16.2298 10.0801 16.3098 10.1101L19.6498 11.3401C19.7398 11.3701 19.7798 11.2501 19.6998 11.2201Z" fill="#1F2D38" stroke="#1F2D38" stroke-width="0.5669" stroke-miterlimit="10"/>
<path d="M21.0999 11.7299L20.4799 11.4999C20.3999 11.4699 20.3499 11.5899 20.4299 11.6199L21.0499 11.8499C21.1399 11.8899 21.1799 11.7599 21.0999 11.7299Z" fill="#1F2D38" stroke="#1F2D38" stroke-width="0.5669" stroke-miterlimit="10"/>
<path d="M18.5199 4.74018L15.7899 7.02018C15.7199 7.07018 15.8099 7.18018 15.8699 7.12018L18.5999 4.84018C18.6699 4.78018 18.5899 4.68018 18.5199 4.74018Z" fill="#1F2D38" stroke="#1F2D38" stroke-width="0.5669" stroke-miterlimit="10"/>
<path d="M19.67 3.78023L19.16 4.20023C19.09 4.25023 19.18 4.36023 19.24 4.30023L19.75 3.88023C19.82 3.83023 19.73 3.73023 19.67 3.78023Z" fill="#1F2D38" stroke="#1F2D38" stroke-width="0.5669" stroke-miterlimit="10"/>
<path d="M12.32 2.52041L12.92 6.03041C12.93 6.11041 13.06 6.09041 13.05 6.01041L12.45 2.50041C12.43 2.41041 12.3 2.44041 12.32 2.52041Z" fill="#1F2D38" stroke="#1F2D38" stroke-width="0.5669" stroke-miterlimit="10"/>
<path d="M12.0599 1.05001L12.1699 1.70001C12.1799 1.78001 12.3099 1.76001 12.2999 1.68001L12.1899 1.03001C12.1799 0.940006 12.0499 0.960006 12.0599 1.05001Z" fill="#1F2D38" stroke="#1F2D38" stroke-width="0.5669" stroke-miterlimit="10"/>
<path d="M17.8801 4.61957C16.7101 3.44957 15.1601 2.80957 13.5001 2.80957C11.8401 2.80957 10.2901 3.44957 9.12006 4.61957C7.96006 5.78957 7.31006 7.34957 7.31006 8.99957C7.31006 10.6496 7.95006 12.2096 9.12006 13.3796C10.2901 14.5496 11.8401 15.1896 13.5001 15.1896C15.1601 15.1896 16.7101 14.5496 17.8801 13.3796C19.0501 12.2096 19.6901 10.6596 19.6901 8.99957C19.6901 7.33957 19.0401 5.78957 17.8801 4.61957Z" fill="#E6BB5B"/>
<path d="M17.6302 4.86918C16.5302 3.76918 15.0602 3.15918 13.5002 3.15918C11.9402 3.15918 10.4702 3.76918 9.37016 4.86918C8.27016 5.96918 7.66016 7.43918 7.66016 8.99918C7.66016 10.5592 8.27016 12.0292 9.37016 13.1292C10.4702 14.2292 11.9402 14.8392 13.5002 14.8392C15.0602 14.8392 16.5302 14.2292 17.6302 13.1292C18.7302 12.0292 19.3402 10.5592 19.3402 8.99918C19.3402 7.43918 18.7302 5.96918 17.6302 4.86918ZM13.6402 5.13918L15.3502 4.63918L17.0602 5.88918L17.1102 7.65918L15.4202 8.39918L13.6402 7.10918V5.13918ZM11.4402 8.66918L12.1102 10.7392L11.0002 11.8992L9.28016 11.0892L8.83016 9.31918L9.77016 7.92918L11.4402 8.66918ZM9.88016 7.67918L9.94016 5.84918L11.6502 4.63918L13.3802 5.14918V7.09918L11.5602 8.41918L9.88016 7.67918ZM12.2302 10.9992H14.8002L14.8202 10.9492L15.8802 12.0692L15.0002 13.4792H12.0202L11.1702 12.1292L12.2302 10.9992ZM16.0602 11.8792L14.9102 10.6592L15.5702 8.63918L17.2102 7.91918L18.1902 9.34918L17.7002 11.1092L16.0602 11.8792ZM18.0402 5.96918L17.1602 5.62918L15.4402 4.37918L14.9102 3.72918C16.2102 4.06918 17.3202 4.87918 18.0402 5.96918ZM12.0802 3.71918L11.5602 4.35918L9.72016 5.66918L8.96016 5.96918C9.68016 4.87918 10.7902 4.06918 12.0802 3.71918ZM8.05016 8.66918L8.60016 9.51918L9.05016 11.2692L9.01016 12.1192C8.40016 11.2292 8.04016 10.1592 8.04016 8.99918C8.04016 8.88918 8.04016 8.77918 8.05016 8.66918ZM11.1802 13.9392L12.1902 13.7392H14.8302L15.8302 13.9292C15.1202 14.2592 14.3302 14.4492 13.5002 14.4492C12.6702 14.4592 11.8802 14.2792 11.1802 13.9392ZM18.0002 12.0892L17.9602 11.1792L18.4402 9.44918L18.9502 8.65918C18.9602 8.76918 18.9602 8.87918 18.9602 8.99918C18.9602 10.1492 18.6102 11.2092 18.0002 12.0892Z" fill="#304256"/>
</svg>
